<svg width="370" height="355" viewBox="0 0 370 355" fill="none" xmlns="http://www.w3.org/2000/svg">
<rect width="370" height="355" fill="white"/>
<rect width="370" height="355" fill="white"/>
<g opacity="0.5" filter="url(#filter0_d_0_1)">
<path d="M83.0688 21.4799V33.9922L83.9278 33.6032C84.3759 33.4087 87.2142 32.0797 90.202 30.6858C93.227 29.2596 95.9533 28.125 96.2894 28.125C96.6255 28.125 99.5386 30.1348 102.75 32.5983C105.999 35.0619 108.838 37.1689 109.099 37.2985C109.361 37.4606 113.021 35.6454 118.174 32.7928C124.934 29.1299 127.026 28.125 127.698 28.2547C128.183 28.3519 131.208 29.6809 134.457 31.2045C137.669 32.728 140.396 33.9598 140.47 33.9598C140.508 33.9598 140.582 28.3519 140.582 21.4799V9.00002H111.826H83.0688V21.4799ZM115.859 13.0195C119.108 14.4782 121.536 17.6549 121.536 20.475C121.536 26.4394 114.328 30.7507 108.166 28.4492C105.701 27.5091 103.049 25.1104 102.489 23.2303C101.817 21.0585 102.19 18.1087 103.423 16.3259C104.431 14.8023 106.56 13.3112 108.651 12.6305C110.182 12.1119 114.365 12.3388 115.859 13.0195Z" fill="#2F8022"/>
<path d="M139.998 33.2178C139.699 33.085 139.309 32.909 138.848 32.6985C137.758 32.2012 136.276 31.5135 134.672 30.7527L134.67 30.7518C133.042 29.9886 131.47 29.2736 130.242 28.7366C129.628 28.4683 129.098 28.2432 128.689 28.0785C128.301 27.9225 127.973 27.7998 127.796 27.7644L127.792 27.7637C127.486 27.7047 127.121 27.7844 126.717 27.92C126.292 28.063 125.735 28.3012 125.004 28.6503C123.538 29.3495 121.315 30.5225 117.936 32.3532L117.932 32.3553C115.359 33.7797 113.163 34.9427 111.58 35.7283C110.787 36.1217 110.156 36.4169 109.71 36.6025C109.493 36.6931 109.332 36.7528 109.223 36.7856C109.207 36.7747 109.188 36.7623 109.168 36.7482C109.063 36.6764 108.921 36.5762 108.746 36.4499C108.395 36.1977 107.916 35.8468 107.343 35.4219C106.197 34.5726 104.677 33.4315 103.054 32.2008C101.443 30.9654 99.9055 29.8424 98.7259 29.0266C98.1368 28.6191 97.6321 28.285 97.2502 28.0511C97.0601 27.9347 96.8931 27.8387 96.7576 27.7701C96.6903 27.736 96.6226 27.7045 96.5587 27.6804C96.5103 27.6622 96.407 27.625 96.2894 27.625C96.1622 27.625 96.0134 27.6671 95.9117 27.6977C95.7853 27.7356 95.6289 27.7893 95.4494 27.8553C95.0894 27.9875 94.6149 28.1771 94.0607 28.4095C92.9515 28.8745 91.5073 29.5176 89.9896 30.2331M139.998 33.2178L83.5688 33.2169M139.998 33.2178C140 33.14 140.002 33.0562 140.004 32.9665C140.016 32.3355 140.029 31.4214 140.04 30.2917C140.064 28.0325 140.082 24.9142 140.082 21.4799V9.50002H111.826H83.5688M139.998 33.2178L83.5688 9.50002M89.9896 30.2331C89.9893 30.2333 89.989 30.2334 89.9887 30.2336L90.202 30.6858L89.9906 30.2327C89.9903 30.2328 89.99 30.233 89.9896 30.2331ZM89.9896 30.2331C89.3623 30.5258 88.7423 30.8153 88.1501 31.0917C85.9153 32.1351 84.0764 32.9936 83.7287 33.1445L83.7215 33.1477L83.7215 33.1477L83.5688 33.2169M83.5688 33.2169V21.4799V9.50002M83.5688 33.2169V9.50002M107.991 28.9176L107.987 28.9163C106.686 28.4201 105.354 27.5479 104.276 26.5612C103.208 25.5844 102.329 24.4415 102.011 23.3757C101.65 22.2099 101.575 20.8562 101.746 19.5665C101.917 18.2793 102.338 17.0173 103.008 16.0457C104.093 14.4099 106.323 12.8631 108.494 12.1559C109.357 11.8644 110.868 11.7987 112.296 11.876C113.727 11.9533 115.226 12.1823 116.065 12.564C117.767 13.3285 119.252 14.5406 120.313 15.9336C121.373 17.3232 122.036 18.9262 122.036 20.475C122.036 23.6718 120.105 26.3869 117.418 27.9911C114.729 29.5962 111.229 30.1269 107.991 28.9176Z" stroke="#115522" stroke-opacity="0.337255"/>
<path d="M108.913 16.8121C104.356 19.3405 106.933 25.7263 112.274 25.1104C117.203 24.5269 118.66 19.7943 114.813 16.9742C113.319 15.8721 110.743 15.8072 108.913 16.8121Z" fill="#2F8022"/>
<path d="M114.518 17.3774L114.516 17.3765C113.872 16.9007 112.961 16.6292 111.976 16.6028C110.994 16.5766 109.982 16.7954 109.154 17.2498C107.111 18.3841 106.692 20.3373 107.345 21.9529C108.004 23.5825 109.772 24.8953 112.216 24.6138C114.531 24.3396 115.929 23.1116 116.357 21.7328C116.782 20.3652 116.303 18.686 114.518 17.3774Z" stroke="#115522" stroke-opacity="0.337255"/>
<path d="M120.714 36.0019C117.091 37.9792 113.842 39.7945 113.506 39.9566C112.983 40.2159 114.104 41.2208 120.079 45.7265L127.287 51.1398H133.935H140.582V44.7216V38.3358L134.159 35.4184C130.648 33.7977 127.66 32.4686 127.548 32.4362C127.436 32.3714 124.337 33.9922 120.714 36.0019Z" fill="#2F8022"/>
<path d="M120.957 36.4391L120.954 36.4408C119.216 37.3891 117.554 38.306 116.26 39.02C115.244 39.5807 114.454 40.0164 114.032 40.2442C114.159 40.3876 114.365 40.5914 114.686 40.8739C115.631 41.7056 117.388 43.0711 120.38 45.3269C120.38 45.327 120.38 45.3271 120.38 45.3273L127.454 50.6398H133.935H140.082V44.7216V38.6579L133.952 35.8737L133.949 35.8724C132.196 35.0628 130.573 34.326 129.374 33.7878C128.775 33.5187 128.283 33.2994 127.933 33.1455C127.759 33.0685 127.621 33.0084 127.523 32.9667C127.436 33.0039 127.314 33.0596 127.159 33.1342C126.804 33.3048 126.298 33.5611 125.679 33.8843C124.442 34.5301 122.765 35.4357 120.957 36.4391ZM113.881 40.0419C113.88 40.0382 113.879 40.0363 113.879 40.0363C113.879 40.0362 113.879 40.038 113.881 40.0419ZM127.634 32.9233C127.636 32.9228 127.636 32.9226 127.635 32.923L127.634 32.9233Z" stroke="#115522" stroke-opacity="0.337255"/>
<path d="M89.1563 35.5157L83.0688 38.3358V44.7216V51.1398H101.779H120.49L108.278 41.9015C101.593 36.8123 95.916 32.6631 95.6545 32.6956C95.3931 32.6956 92.4801 33.9597 89.1563 35.5157Z" fill="#2F8022"/>
<path d="M89.3682 35.9685L89.3664 35.9694L83.5688 38.6552V44.7216V50.6398H101.779H119L107.976 42.3002L107.975 42.2993C104.634 39.7561 101.546 37.4486 99.2625 35.7818C98.12 34.948 97.1813 34.2765 96.5134 33.8164C96.1787 33.5858 95.9169 33.4117 95.7336 33.2976C95.6845 33.267 95.6432 33.2421 95.6092 33.2224C95.6052 33.2237 95.6011 33.2251 95.5968 33.2265C95.4971 33.2603 95.3577 33.3123 95.1799 33.3825C94.8256 33.5223 94.3389 33.7265 93.7529 33.9808C92.5818 34.489 91.027 35.192 89.3682 35.9685ZM95.7159 33.1903C95.7152 33.1905 95.7143 33.1906 95.7133 33.1909C95.7143 33.1907 95.7152 33.1905 95.7159 33.1904C95.7176 33.1901 95.7184 33.1899 95.7185 33.1898C95.7185 33.1898 95.7177 33.1899 95.7159 33.1903Z" stroke="#115522" stroke-opacity="0.337255"/>
<mask id="path-9-inside-1_0_1" fill="white">
<path d="M152.346 41.707C151.301 44.7216 151.674 48.8059 153.205 51.5288C154.438 53.7006 156.567 55.4186 158.621 55.84C159.704 56.0994 160.413 57.396 161.795 61.8369C162.43 63.7818 163.737 69.2276 163.737 69.811C163.737 69.8759 162.393 69.9407 160.787 69.9407C157.276 69.9407 156.006 70.2973 155.708 71.3021C155.446 72.2098 161.198 95.0949 161.795 95.6136C162.019 95.8081 163.14 96.035 164.297 96.1322L166.351 96.2619V100.606V104.917L162.019 109.811L157.687 114.706L153.205 114.609L148.724 114.512L146.894 109.163C145.886 106.213 145.064 103.782 145.064 103.75C145.064 103.75 145.811 103.393 146.707 103.037C147.678 102.615 148.799 101.772 149.396 100.994C150.479 99.6655 150.479 99.6331 150.591 93.9928C150.703 89.5519 150.591 88.2553 150.218 88.0608C146.707 56.0021 145.4 87.6718 144.541 87.9636C144.056 88.1256 143.943 88.8388 143.943 92.2748C143.943 95.4515 143.831 96.5212 143.346 97.1047L142.786 97.8178H111.826C84.1892 97.8178 80.828 97.753 80.3052 97.2992C79.8197 96.9102 79.7076 96.0026 79.7076 92.6638C79.7076 89.9085 79.5582 88.4174 79.2595 88.1581C78.7366 87.7042 74.1803 87.6394 73.4334 88.0608C73.06 88.2553 72.9479 89.5843 73.06 94.1549L73.172 99.9896L74.255 101.221C74.8526 101.87 76.0477 102.713 76.9066 103.037L78.5125 103.653L77.4668 106.667C76.9066 108.288 76.0477 110.784 75.5995 112.178L74.7405 114.706L69.7361 114.609L64.769 114.512L64.657 85.2407L64.5823 56.0021H69.3627C73.6201 56.0021 74.1803 55.9373 74.8526 55.3538C75.2634 54.9972 75.5995 54.511 75.5995 54.2517C75.5995 53.8303 71.4167 45.4672 69.9229 42.8739C69.512 42.1608 68.9518 41.4801 68.7278 41.3504C67.9808 40.8966 56.8143 41.0587 56.142 41.5125C55.4698 41.9663 49.9052 52.3716 49.569 53.7655C49.4197 54.3814 49.6064 54.8352 50.1666 55.3214C50.8762 55.9373 51.3617 56.0021 55.6192 56.0021H60.2875V85.3055V114.609L55.4324 114.739C51.1376 114.836 50.54 114.901 50.0545 115.484C49.2703 116.359 49.3076 117.137 50.2039 117.915C50.9509 118.564 51.4364 118.564 116.681 118.564C165.455 118.564 182.634 118.466 183.307 118.175C184.464 117.721 184.838 116.878 184.278 115.97C183.755 115.128 182.448 114.674 180.618 114.674C179.684 114.674 179.086 114.479 178.825 114.09C178.601 113.799 176.622 111.529 174.456 109.098L170.534 104.657L170.646 100.508C170.684 98.2392 170.758 96.2943 170.796 96.197C170.796 96.0998 171.767 96.035 172.887 96.035C173.97 96.035 175.053 95.8729 175.277 95.7108C175.837 95.2246 181.738 71.918 181.477 71.2373C181.141 70.3297 179.273 69.9407 175.277 69.9407H171.655L171.841 68.5792C171.991 67.8661 172.364 66.1481 172.7 64.7867C173.298 62.4203 173.372 62.3231 174.605 62.0314C175.315 61.8369 176.659 61.0265 177.63 60.1837C180.58 57.6229 181.626 53.2468 180.282 49.0977C179.684 47.25 179.647 47.1852 178.564 47.3797C176.883 47.6714 173.709 49.357 171.43 51.1723C168.032 53.8627 167.024 56.8449 168.592 59.7947C169.302 61.1562 169.302 61.1886 168.48 64.4625L167.696 67.7364L166.874 64.3977C166.389 62.55 165.492 59.665 164.858 57.9795C163.7 54.9973 163.662 54.8676 164.297 53.7655C166.09 50.4915 163.887 44.5595 159.853 41.9015C158.359 40.929 155.185 39.7945 153.878 39.7945C153.168 39.7945 152.907 40.0862 152.346 41.707ZM142.3 108.515C143.197 111.108 143.981 113.539 144.13 113.928L144.317 114.674H111.826C93.974 114.674 79.3342 114.544 79.3342 114.414C79.3342 114.155 82.4339 105.144 82.8821 104.042C82.9941 103.717 89.0069 103.653 111.9 103.717L140.732 103.815L142.3 108.515ZM166.351 112.858V114.609L164.858 114.739C164.036 114.803 163.364 114.739 163.364 114.576C163.364 114.317 166.015 111.173 166.277 111.108C166.314 111.108 166.351 111.886 166.351 112.858ZM173.485 114.09C173.821 114.609 173.671 114.674 172.215 114.674H170.609V112.858L170.646 111.043L171.879 112.307C172.588 112.988 173.298 113.799 173.485 114.09Z"/>
</mask>
<path d="M152.346 41.707C151.301 44.7216 151.674 48.8059 153.205 51.5288C154.438 53.7006 156.567 55.4186 158.621 55.84C159.704 56.0994 160.413 57.396 161.795 61.8369C162.43 63.7818 163.737 69.2276 163.737 69.811C163.737 69.8759 162.393 69.9407 160.787 69.9407C157.276 69.9407 156.006 70.2973 155.708 71.3021C155.446 72.2098 161.198 95.0949 161.795 95.6136C162.019 95.8081 163.14 96.035 164.297 96.1322L166.351 96.2619V100.606V104.917L162.019 109.811L157.687 114.706L153.205 114.609L148.724 114.512L146.894 109.163C145.886 106.213 145.064 103.782 145.064 103.75C145.064 103.75 145.811 103.393 146.707 103.037C147.678 102.615 148.799 101.772 149.396 100.994C150.479 99.6655 150.479 99.6331 150.591 93.9928C150.703 89.5519 150.591 88.2553 150.218 88.0608C146.707 56.0021 145.4 87.6718 144.541 87.9636C144.056 88.1256 143.943 88.8388 143.943 92.2748C143.943 95.4515 143.831 96.5212 143.346 97.1047L142.786 97.8178H111.826C84.1892 97.8178 80.828 97.753 80.3052 97.2992C79.8197 96.9102 79.7076 96.0026 79.7076 92.6638C79.7076 89.9085 79.5582 88.4174 79.2595 88.1581C78.7366 87.7042 74.1803 87.6394 73.4334 88.0608C73.06 88.2553 72.9479 89.5843 73.06 94.1549L73.172 99.9896L74.255 101.221C74.8526 101.87 76.0477 102.713 76.9066 103.037L78.5125 103.653L77.4668 106.667C76.9066 108.288 76.0477 110.784 75.5995 112.178L74.7405 114.706L69.7361 114.609L64.769 114.512L64.657 85.2407L64.5823 56.0021H69.3627C73.6201 56.0021 74.1803 55.9373 74.8526 55.3538C75.2634 54.9972 75.5995 54.511 75.5995 54.2517C75.5995 53.8303 71.4167 45.4672 69.9229 42.8739C69.512 42.1608 68.9518 41.4801 68.7278 41.3504C67.9808 40.8966 56.8143 41.0587 56.142 41.5125C55.4698 41.9663 49.9052 52.3716 49.569 53.7655C49.4197 54.3814 49.6064 54.8352 50.1666 55.3214C50.8762 55.9373 51.3617 56.0021 55.6192 56.0021H60.2875V85.3055V114.609L55.4324 114.739C51.1376 114.836 50.54 114.901 50.0545 115.484C49.2703 116.359 49.3076 117.137 50.2039 117.915C50.9509 118.564 51.4364 118.564 116.681 118.564C165.455 118.564 182.634 118.466 183.307 118.175C184.464 117.721 184.838 116.878 184.278 115.97C183.755 115.128 182.448 114.674 180.618 114.674C179.684 114.674 179.086 114.479 178.825 114.09C178.601 113.799 176.622 111.529 174.456 109.098L170.534 104.657L170.646 100.508C170.684 98.2392 170.758 96.2943 170.796 96.197C170.796 96.0998 171.767 96.035 172.887 96.035C173.97 96.035 175.053 95.8729 175.277 95.7108C175.837 95.2246 181.738 71.918 181.477 71.2373C181.141 70.3297 179.273 69.9407 175.277 69.9407H171.655L171.841 68.5792C171.991 67.8661 172.364 66.1481 172.7 64.7867C173.298 62.4203 173.372 62.3231 174.605 62.0314C175.315 61.8369 176.659 61.0265 177.63 60.1837C180.58 57.6229 181.626 53.2468 180.282 49.0977C179.684 47.25 179.647 47.1852 178.564 47.3797C176.883 47.6714 173.709 49.357 171.43 51.1723C168.032 53.8627 167.024 56.8449 168.592 59.7947C169.302 61.1562 169.302 61.1886 168.48 64.4625L167.696 67.7364L166.874 64.3977C166.389 62.55 165.492 59.665 164.858 57.9795C163.7 54.9973 163.662 54.8676 164.297 53.7655C166.09 50.4915 163.887 44.5595 159.853 41.9015C158.359 40.929 155.185 39.7945 153.878 39.7945C153.168 39.7945 152.907 40.0862 152.346 41.707ZM142.3 108.515C143.197 111.108 143.981 113.539 144.13 113.928L144.317 114.674H111.826C93.974 114.674 79.3342 114.544 79.3342 114.414C79.3342 114.155 82.4339 105.144 82.8821 104.042C82.9941 103.717 89.0069 103.653 111.9 103.717L140.732 103.815L142.3 108.515ZM166.351 112.858V114.609L164.858 114.739C164.036 114.803 163.364 114.739 163.364 114.576C163.364 114.317 166.015 111.173 166.277 111.108C166.314 111.108 166.351 111.886 166.351 112.858ZM173.485 114.09C173.821 114.609 173.671 114.674 172.215 114.674H170.609V112.858L170.646 111.043L171.879 112.307C172.588 112.988 173.298 113.799 173.485 114.09Z" fill="#2F8022" stroke="#115522" stroke-opacity="0.337255" stroke-width="2" mask="url(#path-9-inside-1_0_1)"/>
<path d="M84.8614 74.1871C84.2639 74.4788 84.1892 75.1595 84.1892 80.6377V86.7966H96.887H109.585V81.0267C109.585 76.3589 109.473 75.1271 108.987 74.5436C108.427 73.8305 108.39 73.8305 96.9617 73.8305C89.8659 73.8305 85.2349 73.9602 84.8614 74.1871Z" fill="#2F8022"/>
<path d="M85.0971 74.632C85.0909 74.6335 85.0859 74.6348 85.082 74.6358L85.0808 74.6364C85.0189 74.6666 84.9915 74.6878 84.9554 74.7633C84.9026 74.8738 84.8438 75.0871 84.7985 75.5196C84.7085 76.3788 84.6892 77.8874 84.6892 80.6377V86.2966H96.887H109.085V81.0267C109.085 78.6892 109.056 77.2371 108.97 76.2993C108.883 75.3464 108.741 75.0292 108.603 74.8635L108.603 74.8636L108.594 74.8525C108.465 74.6886 108.428 74.6474 108.3 74.5981C108.118 74.5284 107.774 74.4633 107.02 74.4188C105.532 74.3308 102.687 74.3305 96.9617 74.3305C93.4159 74.3305 90.4896 74.3629 88.4052 74.4235C87.3621 74.4538 86.5351 74.491 85.9486 74.5343C85.6544 74.556 85.4282 74.5787 85.2685 74.6016C85.1882 74.6131 85.1325 74.6235 85.0971 74.632ZM85.0727 74.6385C85.0709 74.639 85.0701 74.6393 85.0702 74.6393C85.0702 74.6394 85.0711 74.6391 85.0727 74.6385Z" stroke="#115522" stroke-opacity="0.337255"/>
<path d="M114.739 74.1871C114.141 74.4788 114.066 75.1595 114.066 80.6377V86.7966H126.764H139.462V80.8646C139.462 75.5161 139.387 74.8354 138.79 74.3816C138.192 73.8953 136.81 73.8305 126.727 73.8305C119.706 73.8305 115.112 73.9926 114.739 74.1871Z" fill="#2F8022"/>
<path d="M114.962 74.6401C114.953 74.6419 114.946 74.6435 114.941 74.6447C114.891 74.671 114.865 74.6949 114.833 74.7633C114.78 74.8738 114.721 75.0871 114.676 75.5196C114.586 76.3788 114.566 77.8874 114.566 80.6377V86.2966H126.764H138.962V80.8646C138.962 78.1796 138.943 76.703 138.853 75.8394C138.808 75.4086 138.749 75.1733 138.688 75.0318C138.636 74.9125 138.58 74.8502 138.487 74.7798L138.481 74.7747L138.474 74.7694C138.408 74.7157 138.294 74.6452 137.972 74.5806C137.64 74.514 137.128 74.4615 136.293 74.4232C134.626 74.3468 131.773 74.3305 126.727 74.3305C123.219 74.3305 120.321 74.371 118.255 74.4356C117.222 74.4679 116.401 74.5062 115.818 74.548C115.525 74.569 115.299 74.5905 115.138 74.6116C115.057 74.6223 115 74.632 114.962 74.6401Z" stroke="#115522" stroke-opacity="0.337255"/>
<path d="M84.1892 92.3072V93.928H96.9243H109.622L109.51 92.372L109.398 90.8485L96.8123 90.7513L84.1892 90.6865V92.3072Z" fill="#2F8022"/>
<path d="M84.6892 92.3072V93.428H96.9243H109.085L109.011 92.4087L109.011 92.408L108.933 91.345L96.8097 91.2513L96.8084 91.2513L84.6892 91.189V92.3072Z" stroke="#115522" stroke-opacity="0.337255"/>
<path d="M114.328 90.8809C114.178 91.0106 114.066 91.7562 114.066 92.5341V93.928H126.764H139.462V92.3072V90.7189L127.026 90.6865C120.191 90.6865 114.477 90.7837 114.328 90.8809Z" fill="#2F8022"/>
<path d="M115.431 91.3092C115.103 91.3205 114.848 91.332 114.672 91.3434C114.66 91.3986 114.647 91.4647 114.635 91.5413C114.593 91.8116 114.566 92.1663 114.566 92.5341V93.428H126.764H138.962V92.3072V91.2176L127.026 91.1865C127.025 91.1865 127.025 91.1865 127.025 91.1865C123.61 91.1865 120.476 91.2108 118.178 91.2472C117.028 91.2654 116.09 91.2866 115.431 91.3092Z" stroke="#115522" stroke-opacity="0.337255"/>
<path d="M39 139.147V157.786H42.3612H45.7224V159.893V162H118.361H191V143.361V124.722H188.199H185.398V122.615V120.508H112.199H39V139.147ZM183.68 123.264L183.643 124.56L114.589 124.658L45.5356 124.722L45.573 140.606L45.6103 156.489H43.0708H40.4939V139.147V121.805L112.124 121.87L183.717 121.967L183.68 123.264ZM189.506 143.361V160.703H118.361H47.2162V143.361V126.019H118.361H189.506V143.361Z" fill="#2F8022"/>
<path d="M184.898 122.615V121.008H112.199H39.5V139.147V157.286H42.3612H45.7224H46.2224V157.786V159.893V161.5H118.361H190.5V143.361V125.222H188.199H185.398H184.898V124.722V122.615ZM184.143 124.575L184.129 125.06L183.643 125.06L114.59 125.158H114.59L46.0368 125.222L46.073 140.605L46.1103 156.488L46.1115 156.989H45.6103H43.0708H40.4939H39.9939V156.489V139.147V121.805V121.305L40.4943 121.305L112.125 121.37H112.125L183.718 121.467L184.232 121.468L184.217 121.982L184.18 123.278L184.143 124.575ZM190.006 160.703V161.203H189.506H118.361H47.2162H46.7162V160.703V143.361V126.019V125.519H47.2162H118.361H189.506H190.006V126.019V143.361V160.703Z" stroke="#115522" stroke-opacity="0.337255"/>
<path d="M106.784 131.854C106.074 131.951 105.365 132.405 104.804 133.15C103.945 134.253 103.908 134.447 104.057 139.407C104.17 144.366 104.207 144.561 105.066 145.176C106.373 146.117 107.531 146.246 108.913 145.663C109.659 145.306 110.182 145.241 110.257 145.468C110.332 145.63 110.817 145.792 111.303 145.792H112.199V141.74V137.689H110.145H108.091V138.985C108.091 139.698 108.278 140.282 108.502 140.282C108.726 140.282 108.838 140.833 108.763 141.643C108.688 142.616 108.464 143.037 108.091 143.037C107.605 143.037 107.531 142.356 107.531 138.823C107.531 135.29 107.605 134.609 108.091 134.609C108.464 134.609 108.688 134.998 108.763 135.646C108.875 136.684 108.95 136.716 110.593 136.716H112.274L112.05 135.16C111.601 132.437 109.884 131.368 106.784 131.854Z" fill="#2F8022"/>
<path d="M106.861 132.348L106.861 132.348L106.852 132.349C106.305 132.424 105.705 132.784 105.204 133.451L105.204 133.451L105.199 133.458C104.983 133.735 104.85 133.916 104.754 134.114C104.662 134.303 104.593 134.529 104.549 134.892C104.457 135.651 104.482 136.891 104.557 139.392L104.557 139.392L104.557 139.395C104.614 141.898 104.652 143.136 104.774 143.834C104.833 144.169 104.904 144.328 104.973 144.428C105.045 144.533 105.144 144.617 105.357 144.77L105.358 144.771C105.963 145.206 106.502 145.431 107.022 145.495C107.538 145.558 108.081 145.469 108.708 145.206C109.1 145.02 109.466 144.893 109.768 144.851C109.917 144.831 110.091 144.825 110.257 144.872C110.401 144.913 110.565 145.005 110.668 145.173C110.692 145.184 110.729 145.199 110.777 145.215C110.919 145.26 111.111 145.292 111.303 145.292H111.699V141.74V138.189H110.145H108.591V138.985C108.591 139.304 108.633 139.575 108.689 139.749C108.697 139.776 108.705 139.798 108.713 139.817C108.887 139.879 109.004 140.009 109.07 140.113C109.158 140.252 109.206 140.415 109.235 140.563C109.294 140.865 109.301 141.256 109.261 141.685C109.223 142.188 109.142 142.612 108.987 142.926C108.907 143.089 108.796 143.244 108.638 143.359C108.474 143.48 108.286 143.537 108.091 143.537C107.971 143.537 107.832 143.516 107.695 143.443C107.555 143.37 107.452 143.263 107.376 143.143C107.238 142.925 107.174 142.636 107.133 142.319C107.048 141.668 107.031 140.578 107.031 138.823C107.031 137.068 107.048 135.978 107.133 135.327C107.174 135.011 107.238 134.721 107.376 134.503C107.452 134.384 107.555 134.276 107.695 134.203C107.832 134.13 107.971 134.109 108.091 134.109C108.488 134.109 108.781 134.33 108.962 134.619C109.131 134.887 109.219 135.231 109.26 135.589L109.26 135.589L109.26 135.593C109.289 135.862 109.311 136.006 109.341 136.096C109.348 136.12 109.355 136.133 109.358 136.139C109.381 136.151 109.458 136.179 109.67 136.196C109.886 136.214 110.177 136.216 110.593 136.216H111.697L111.555 135.236C111.346 133.968 110.858 133.174 110.146 132.727C109.417 132.271 108.354 132.114 106.861 132.348ZM110.629 145.15C110.629 145.15 110.631 145.152 110.636 145.155C110.632 145.152 110.629 145.15 110.629 145.15Z" stroke="#115522" stroke-opacity="0.337255"/>
<path d="M65.1425 138.823V145.792H68.1676C71.6408 145.792 72.3877 145.533 72.9479 144.139C73.4708 142.778 73.4708 134.836 72.9479 133.507C72.4251 132.178 71.4167 131.854 67.9061 131.854H65.1425V138.823ZM69.8108 138.823C69.8108 141.74 69.6614 143.037 69.3627 143.102C69.0265 143.199 68.8772 142.194 68.8025 139.374C68.6904 135.031 68.7651 134.35 69.3627 134.544C69.6614 134.609 69.8108 135.938 69.8108 138.823Z" fill="#2F8022"/>
<path d="M69.0913 134.023C69.2489 134 69.3921 134.03 69.5 134.063C69.695 134.116 69.8158 134.251 69.8815 134.348C69.9528 134.453 70.0008 134.573 70.0359 134.685C70.1068 134.911 70.1575 135.213 70.196 135.573C70.2736 136.302 70.3108 137.377 70.3108 138.823C70.3108 140.285 70.2736 141.361 70.1959 142.085C70.1575 142.444 70.1066 142.743 70.0352 142.968C69.9999 143.079 69.9514 143.198 69.8792 143.303C69.8104 143.403 69.6856 143.537 69.486 143.587C69.316 143.631 69.132 143.608 68.9725 143.504C68.8309 143.412 68.7473 143.282 68.6968 143.181C68.5967 142.981 68.5355 142.71 68.4901 142.406C68.3963 141.781 68.3399 140.796 68.3026 139.387L68.3026 139.387C68.247 137.23 68.2354 135.932 68.3198 135.2C68.3413 135.013 68.3709 134.845 68.4138 134.7C68.4556 134.559 68.5191 134.408 68.6274 134.281C68.7471 134.141 68.9065 134.049 69.0913 134.023ZM69.5925 142.736C69.5937 142.739 69.5944 142.74 69.5944 142.74C69.5945 142.74 69.5938 142.738 69.5925 142.736ZM65.6425 138.823V145.292H68.1676C69.9209 145.292 70.889 145.223 71.4866 145.016C71.7658 144.919 71.9462 144.798 72.0854 144.647C72.23 144.49 72.3539 144.276 72.4824 143.957C72.5257 143.842 72.5764 143.618 72.6243 143.277C72.6711 142.942 72.711 142.528 72.7432 142.056C72.8076 141.114 72.8401 139.964 72.8401 138.811C72.8401 137.658 72.8076 136.51 72.7432 135.572C72.711 135.102 72.6711 134.69 72.6244 134.36C72.576 134.017 72.525 133.798 72.4826 133.69C72.3696 133.403 72.2424 133.2 72.0842 133.046C71.9271 132.893 71.7138 132.762 71.3921 132.657C70.7218 132.438 69.6686 132.354 67.9061 132.354H65.6425V138.823Z" stroke="#115522" stroke-opacity="0.337255"/>
<path d="M74.4791 138.823V145.792H77.8403H81.2015V144.334V142.875H79.5209H77.8403V141.416V139.958H79.3341H80.828V138.661C80.828 137.3 80.716 137.235 78.886 137.364C77.915 137.397 77.8403 137.332 77.8403 136.1C77.8403 134.804 77.8403 134.804 79.4462 134.706C81.0147 134.609 81.0147 134.609 81.1268 133.215L81.2388 131.854H77.8776H74.4791V138.823Z" fill="#2F8022"/>
<path d="M80.6285 133.174L80.696 132.354H77.8776H74.9791V138.823V145.292H77.8403H80.7015V144.334V143.375H79.5209H77.8403H77.3403V142.875V141.416V139.958V139.458H77.8403H79.3341H80.328V138.661C80.328 138.313 80.3195 138.103 80.2916 137.964C80.2799 137.905 80.2679 137.878 80.2628 137.868C80.244 137.858 80.1672 137.828 79.9444 137.821C79.7072 137.812 79.3834 137.83 78.9213 137.863L78.912 137.864L78.9027 137.864C78.6669 137.872 78.436 137.877 78.2414 137.849C78.0349 137.819 77.7968 137.742 77.6167 137.529C77.4515 137.333 77.3967 137.091 77.3709 136.884C77.3444 136.67 77.3403 136.405 77.3403 136.1L77.3403 136.069C77.3403 135.772 77.3402 135.5 77.37 135.281C77.4022 135.045 77.4802 134.778 77.7133 134.576C77.9267 134.391 78.1989 134.325 78.4435 134.288C78.6914 134.251 79.011 134.232 79.3923 134.209L79.4152 134.207C79.4154 134.207 79.4155 134.207 79.4156 134.207C79.8179 134.182 80.0832 134.165 80.276 134.135C80.4441 134.108 80.4924 134.079 80.5 134.074C80.5068 134.064 80.5266 134.026 80.5476 133.923C80.5803 133.762 80.5993 133.537 80.6284 133.175L80.6285 133.174ZM80.4975 134.077C80.4976 134.077 80.4983 134.076 80.4996 134.074C80.4982 134.076 80.4975 134.077 80.4975 134.077Z" stroke="#115522" stroke-opacity="0.337255"/>
<path d="M82.7327 132.697C82.1725 133.345 81.9484 134.026 81.9484 135.29C81.9484 136.878 82.0978 137.138 83.7037 138.726C84.6747 139.666 85.683 140.638 85.9445 140.865C86.6167 141.481 86.5794 143.199 85.8698 143.199C85.3096 143.199 85.1602 142.778 85.2349 141.319C85.2722 140.671 85.0855 140.606 83.4423 140.606H81.6496L81.8364 142.292C81.9111 143.232 82.2845 144.366 82.658 144.82C84.1518 146.635 88.2973 146.343 89.2683 144.334C89.9032 143.005 89.9405 140.833 89.343 139.86C89.1189 139.471 88.0359 138.304 86.9155 137.235C85.7951 136.197 84.9735 135.193 85.0482 134.998C85.3096 134.285 85.9818 134.447 86.2059 135.257C86.43 135.971 86.654 136.068 88.1106 136.068C89.9405 136.068 90.0152 135.971 89.4177 134.058C88.8948 132.437 87.8118 131.854 85.459 131.854C83.7784 131.854 83.3676 131.983 82.7327 132.697Z" fill="#2F8022"/>
<path d="M82.2081 141.106H83.4423C83.8534 141.106 84.1584 141.11 84.3882 141.125C84.5687 141.137 84.6763 141.154 84.7387 141.17C84.7392 141.197 84.7388 141.236 84.7357 141.29L84.7355 141.294L84.7355 141.294C84.6987 142.012 84.7076 142.576 84.841 142.967C84.9138 143.181 85.0363 143.384 85.2426 143.524C85.4455 143.662 85.6703 143.699 85.8698 143.699C86.29 143.699 86.567 143.431 86.7146 143.16C86.8576 142.897 86.9168 142.578 86.9251 142.277C86.9412 141.697 86.7684 140.942 86.2822 140.497L86.2723 140.488L86.2722 140.488C86.0244 140.273 85.0319 139.316 84.0534 138.368C83.235 137.559 82.8624 137.155 82.6683 136.779C82.4908 136.434 82.4484 136.083 82.4484 135.29C82.4484 134.104 82.6532 133.554 83.1086 133.026C83.3939 132.706 83.5819 132.569 83.8517 132.485C84.1618 132.389 84.6121 132.354 85.459 132.354C86.6079 132.354 87.3641 132.499 87.8826 132.786C88.3741 133.057 88.7081 133.488 88.9411 134.209C89.092 134.692 89.1885 135.025 89.2303 135.265C89.2519 135.389 89.2529 135.458 89.2509 135.493C89.2242 135.503 89.1761 135.516 89.0953 135.528C88.8846 135.561 88.5761 135.568 88.1106 135.568C87.7482 135.568 87.4799 135.562 87.274 135.543C87.0654 135.525 86.9544 135.497 86.8922 135.47C86.8908 135.47 86.8895 135.469 86.8882 135.468C86.8352 135.446 86.783 135.424 86.6853 135.115C86.548 134.627 86.2338 134.18 85.7532 134.069C85.499 134.011 85.2386 134.062 85.0208 134.214C84.812 134.361 84.669 134.58 84.5791 134.825C84.579 134.825 84.5788 134.826 84.5787 134.826L85.0482 134.998C84.9735 135.193 85.7951 136.197 86.9155 137.235L82.2081 141.106ZM82.2081 141.106L82.3333 142.236L82.3342 142.244L82.3348 142.252C82.3686 142.677 82.4714 143.157 82.6105 143.583C82.7537 144.022 82.9171 144.348 83.0441 144.502C83.6468 145.235 84.8627 145.604 86.1231 145.512C87.3922 145.421 88.446 144.885 88.8176 144.117C89.096 143.534 89.2547 142.734 89.2679 141.955C89.2813 141.162 89.1424 140.489 88.917 140.122L88.9133 140.116L88.9097 140.11C88.831 139.973 88.5462 139.626 88.0984 139.143C87.668 138.677 87.1255 138.127 86.573 137.599L82.2081 141.106ZM89.2797 135.48C89.2797 135.48 89.2794 135.48 89.2788 135.481L89.2797 135.48Z" stroke="#115522" stroke-opacity="0.337255"/>
<path d="M90.5381 138.823V145.792H92.2187H93.8993V138.823V131.854H92.2187H90.5381V138.823Z" fill="#2F8022"/>
<path d="M91.0381 138.823V145.292H92.2187H93.3993V138.823V132.354H92.2187H91.0381V138.823Z" stroke="#115522" stroke-opacity="0.337255"/>
<path d="M95.0197 132.016C94.9823 132.113 94.9823 134.058 94.9823 136.392C94.9823 138.693 94.9823 141.773 95.0197 143.199V145.792H96.7002H98.3808L98.4182 143.426L98.4555 141.092L99.0157 143.426L99.5759 145.792H101.219H102.862V138.823V131.854H101.182H99.5012L99.4639 134.026C99.4265 136.457 99.3518 136.424 98.7543 133.701L98.3435 131.854H96.6629C95.7666 131.854 95.0197 131.919 95.0197 132.016Z" fill="#2F8022"/>
<path d="M95.5524 132.396C95.5336 132.398 95.5156 132.4 95.4984 132.402C95.4983 132.409 95.4981 132.416 95.4979 132.424C95.4928 132.652 95.4893 132.974 95.487 133.368C95.4823 134.156 95.4823 135.224 95.4823 136.392C95.4823 138.697 95.4824 141.768 95.5195 143.186L95.5197 143.186V143.199V145.292H96.7002H97.8887L97.9182 143.418L97.9182 143.418L97.9556 141.084L98.9417 140.975L99.5019 143.309L99.5023 143.311L99.9714 145.292H101.219H102.362V138.823V132.354H101.182H99.9927L99.9638 134.033C99.9638 134.034 99.9638 134.034 99.9638 134.034C99.9545 134.639 99.9428 135.107 99.92 135.42C99.909 135.57 99.8936 135.715 99.8664 135.827C99.8554 135.873 99.8289 135.975 99.762 136.07C99.7261 136.121 99.6515 136.21 99.5226 136.261C99.3751 136.32 99.2268 136.304 99.1122 136.251C99.0137 136.207 98.9512 136.142 98.9199 136.105C98.8854 136.065 98.8605 136.025 98.8437 135.995C98.8103 135.936 98.7838 135.872 98.7628 135.816C98.7198 135.7 98.6753 135.548 98.6285 135.37C98.5339 135.011 98.4151 134.489 98.2661 133.809C98.266 133.809 98.266 133.809 98.2659 133.809L97.9424 132.354H96.6629C96.2243 132.354 95.8303 132.37 95.5524 132.396ZM95.5105 132.106C95.5105 132.106 95.5105 132.107 95.5104 132.107L95.5105 132.106Z" stroke="#115522" stroke-opacity="0.337255"/>
<path d="M113.88 132.664C112.983 133.41 112.759 134.253 112.946 136.068C113.058 137.138 113.207 137.332 115.485 139.439C116.942 140.8 117.428 141.514 117.428 142.227C117.428 142.875 117.241 143.199 116.867 143.199C116.344 143.199 116.083 142.227 116.27 140.995C116.344 140.671 115.859 140.606 114.552 140.671L112.759 140.768L112.871 142.389C113.058 144.496 113.73 145.371 115.598 145.792C118.996 146.603 121.05 144.852 120.714 141.384C120.565 139.893 120.303 139.504 118.324 137.559C117.129 136.392 116.12 135.257 116.12 135.031C116.12 134.317 116.979 134.415 117.129 135.16C117.241 135.808 117.502 135.906 119.033 136.003C120.975 136.1 121.05 136.035 120.415 134.058C119.892 132.47 118.809 131.854 116.569 131.854C115.149 131.854 114.589 132.016 113.88 132.664Z" fill="#2F8022"/>
<path d="M114.217 133.033L114.208 133.041L114.199 133.049C113.816 133.367 113.602 133.681 113.489 134.096C113.369 134.536 113.352 135.126 113.443 136.016C113.471 136.279 113.497 136.447 113.545 136.595C113.591 136.735 113.662 136.877 113.803 137.063C114.105 137.465 114.67 138.004 115.825 139.072L115.825 139.072L115.827 139.074C116.561 139.759 117.078 140.308 117.414 140.791C117.756 141.285 117.928 141.739 117.928 142.227C117.928 142.582 117.879 142.931 117.721 143.206C117.538 143.522 117.233 143.699 116.867 143.699C116.562 143.699 116.317 143.551 116.148 143.354C115.987 143.168 115.885 142.93 115.82 142.689C115.705 142.266 115.68 141.735 115.743 141.166C115.516 141.141 115.146 141.142 114.578 141.17C114.577 141.17 114.577 141.17 114.577 141.17L113.293 141.24L113.37 142.349C113.46 143.367 113.663 143.992 113.996 144.412C114.321 144.821 114.83 145.107 115.708 145.305L115.708 145.305L115.714 145.306C117.321 145.689 118.499 145.442 119.23 144.813C119.961 144.186 120.375 143.07 120.216 141.433C120.145 140.718 120.053 140.338 119.782 139.908C119.488 139.44 118.974 138.899 117.974 137.916C117.37 137.327 116.81 136.742 116.398 136.272C116.193 136.038 116.018 135.825 115.891 135.65C115.829 135.564 115.771 135.477 115.727 135.395C115.697 135.34 115.62 135.198 115.62 135.031C115.62 134.753 115.706 134.481 115.911 134.284C116.116 134.087 116.384 134.022 116.629 134.052C117.112 134.111 117.509 134.515 117.619 135.062L117.619 135.062L117.621 135.075C117.646 135.215 117.669 135.266 117.681 135.285C117.681 135.285 117.682 135.286 117.682 135.286C117.685 135.291 117.693 135.306 117.748 135.33C117.82 135.361 117.947 135.395 118.173 135.426C118.395 135.456 118.682 135.48 119.062 135.504C119.555 135.528 119.886 135.54 120.115 135.52C120.19 135.514 120.24 135.505 120.271 135.497C120.271 135.46 120.266 135.397 120.248 135.3C120.204 135.055 120.1 134.713 119.94 134.213C119.707 133.506 119.371 133.071 118.888 132.794C118.383 132.505 117.655 132.354 116.569 132.354C115.869 132.354 115.434 132.395 115.101 132.495C114.787 132.589 114.533 132.744 114.217 133.033Z" stroke="#115522" stroke-opacity="0.337255"/>
<path d="M140.806 133.053C140.545 134.415 139.462 144.334 139.462 145.209C139.462 145.695 139.798 145.792 141.143 145.792C142.823 145.792 142.823 145.792 142.823 144.625C142.823 143.621 142.935 143.491 143.682 143.588C144.317 143.653 144.541 143.945 144.616 144.723C144.728 145.76 144.802 145.792 146.408 145.792C147.491 145.792 148.052 145.663 148.052 145.371C148.052 145.176 147.715 142.194 147.305 138.823C146.894 135.419 146.558 132.47 146.558 132.243C146.558 131.983 145.736 131.854 143.794 131.854H141.03L140.806 133.053ZM144.093 138.402C144.28 140.833 144.242 141.254 143.757 141.254C143.383 141.254 143.197 140.93 143.197 140.314C143.197 139.212 143.645 135.355 143.757 135.484C143.794 135.549 143.943 136.846 144.093 138.402Z" fill="#2F8022"/>
<path d="M141.298 133.145L141.297 133.147C141.172 133.803 140.838 136.597 140.533 139.368C140.382 140.746 140.238 142.109 140.133 143.181C140.026 144.27 139.962 145.021 139.962 145.209C139.962 145.209 139.962 145.21 139.962 145.211C140.123 145.264 140.456 145.292 141.143 145.292C141.571 145.292 141.863 145.292 142.076 145.276C142.197 145.266 142.265 145.253 142.299 145.244C142.3 145.237 142.302 145.23 142.303 145.221C142.322 145.106 142.323 144.935 142.323 144.625C142.323 144.371 142.33 144.144 142.358 143.954C142.384 143.769 142.44 143.552 142.588 143.374C142.754 143.175 142.972 143.096 143.172 143.072C143.353 143.049 143.551 143.067 143.74 143.091C144.121 143.131 144.486 143.251 144.747 143.573C144.989 143.871 145.074 144.264 145.113 144.672C145.142 144.939 145.164 145.083 145.193 145.174C145.201 145.198 145.207 145.212 145.211 145.218C145.233 145.229 145.307 145.256 145.507 145.273C145.718 145.29 146.002 145.292 146.408 145.292C146.941 145.292 147.301 145.259 147.515 145.206C147.523 145.204 147.53 145.202 147.537 145.2C147.527 145.098 147.513 144.961 147.495 144.792C147.458 144.435 147.403 143.94 147.335 143.345C147.2 142.155 147.014 140.568 146.808 138.884L146.808 138.883C146.603 137.18 146.416 135.591 146.28 134.398C146.213 133.802 146.158 133.304 146.119 132.94C146.101 132.766 146.085 132.612 146.075 132.491C146.016 132.477 145.937 132.461 145.833 132.446C145.422 132.387 144.761 132.354 143.794 132.354H141.446L141.298 133.145ZM146.208 132.536C146.208 132.536 146.206 132.534 146.201 132.532C146.205 132.534 146.207 132.536 146.208 132.536ZM144.591 138.354L144.591 138.354L144.591 138.363C144.683 139.56 144.727 140.329 144.674 140.796C144.647 141.026 144.589 141.285 144.414 141.483C144.211 141.711 143.949 141.754 143.757 141.754C143.393 141.754 143.089 141.579 142.906 141.27C142.746 140.998 142.697 140.657 142.697 140.314C142.697 139.73 142.812 138.463 142.938 137.38C143.001 136.833 143.069 136.321 143.128 135.95C143.158 135.767 143.187 135.607 143.214 135.492C143.227 135.442 143.246 135.369 143.275 135.303C143.275 135.303 143.275 135.302 143.275 135.301C143.285 135.28 143.327 135.184 143.421 135.103C143.478 135.055 143.602 134.972 143.779 134.982C143.961 134.992 144.079 135.093 144.135 135.157L144.166 135.193L144.19 135.235C144.234 135.311 144.251 135.391 144.252 135.395L144.252 135.395C144.258 135.422 144.263 135.451 144.268 135.477C144.278 135.531 144.288 135.6 144.299 135.68C144.322 135.84 144.349 136.062 144.38 136.327C144.441 136.857 144.516 137.574 144.591 138.354Z" stroke="#115522" stroke-opacity="0.337255"/>
<path d="M148.799 138.823V145.792H150.479H152.16V142.681C152.16 140.347 152.272 139.601 152.645 139.698C152.944 139.796 153.131 140.8 153.205 142.81L153.317 145.792H154.961H156.641V142.778C156.641 140.638 156.492 139.569 156.081 139.082C155.596 138.499 155.596 138.369 156.081 138.013C156.753 137.526 156.865 134.09 156.23 133.053C155.558 131.951 155.185 131.854 151.898 131.854H148.799V138.823ZM153.093 135.744C153.093 136.327 152.869 136.878 152.645 136.943C152.309 137.04 152.16 136.684 152.16 135.744C152.16 134.804 152.309 134.447 152.645 134.512C152.869 134.609 153.093 135.16 153.093 135.744Z" fill="#2F8022"/>
<path d="M151.898 132.354H149.299V138.823V145.292H150.479H151.66V142.681C151.66 141.519 151.687 140.71 151.769 140.199C151.808 139.954 151.87 139.703 151.998 139.514C152.069 139.41 152.176 139.301 152.33 139.239C152.488 139.175 152.643 139.181 152.771 139.214L152.786 139.218L152.8 139.223C153.092 139.318 153.236 139.581 153.307 139.743C153.39 139.934 153.452 140.175 153.501 140.448C153.601 140.998 153.667 141.78 153.705 142.792L153.799 145.292H154.961H156.141V142.778C156.141 141.714 156.104 140.942 156.021 140.384C155.936 139.815 155.813 139.54 155.699 139.405L155.699 139.405L155.697 139.402C155.574 139.255 155.462 139.113 155.381 138.979C155.301 138.848 155.217 138.672 155.217 138.462C155.217 138.233 155.316 138.055 155.427 137.924C155.528 137.806 155.659 137.702 155.783 137.611C155.783 137.611 155.783 137.611 155.783 137.611C155.783 137.61 155.811 137.583 155.853 137.492C155.9 137.391 155.948 137.248 155.99 137.065C156.076 136.699 156.131 136.226 156.146 135.724C156.162 135.223 156.138 134.711 156.075 134.268C156.009 133.811 155.908 133.484 155.804 133.314L155.804 133.314C155.641 133.047 155.522 132.885 155.396 132.771C155.281 132.667 155.142 132.586 154.912 132.522C154.404 132.382 153.569 132.354 151.898 132.354ZM152.74 134.021L152.794 134.031L152.844 134.053C153.02 134.13 153.141 134.266 153.218 134.375C153.301 134.493 153.368 134.629 153.421 134.769C153.527 135.049 153.593 135.392 153.593 135.744C153.593 136.094 153.527 136.439 153.42 136.717C153.367 136.856 153.298 136.993 153.209 137.111C153.129 137.218 152.991 137.363 152.784 137.423C152.61 137.474 152.392 137.482 152.183 137.365C151.986 137.254 151.876 137.075 151.813 136.921C151.694 136.628 151.66 136.216 151.66 135.744C151.66 135.27 151.694 134.86 151.812 134.565C151.874 134.41 151.978 134.238 152.159 134.123C152.352 134 152.561 133.986 152.74 134.021Z" stroke="#115522" stroke-opacity="0.337255"/>
<path d="M157.015 133.313C157.015 134.642 157.089 134.771 157.948 134.771H158.882V140.282V145.792H160.675H162.43L162.355 140.314L162.281 134.804L163.289 134.706C164.185 134.609 164.297 134.479 164.335 133.215L164.372 131.854H160.712H157.015V133.313Z" fill="#2F8022"/>
<path d="M158.882 134.271H159.382V134.771V140.282V145.292H160.675H161.923L161.855 140.321L161.855 140.321L161.781 134.81L161.774 134.35L162.233 134.306L163.238 134.209C163.46 134.185 163.587 134.163 163.667 134.136C163.703 134.124 163.719 134.114 163.723 134.111C163.726 134.11 163.726 134.109 163.727 134.108L163.727 134.108C163.733 134.099 163.763 134.051 163.787 133.891C163.812 133.733 163.826 133.516 163.835 133.201C163.835 133.201 163.835 133.201 163.835 133.2L163.858 132.354H160.712H157.515V133.313C157.515 133.646 157.52 133.88 157.537 134.05C157.548 134.159 157.563 134.219 157.572 134.248C157.633 134.262 157.741 134.271 157.948 134.271H158.882Z" stroke="#115522" stroke-opacity="0.337255"/>
<path d="M165.791 132.632C165.007 133.313 164.857 133.766 164.857 135.225C164.857 136.975 164.932 137.105 167.098 139.18C168.742 140.768 169.339 141.578 169.339 142.259C169.339 143.523 168.219 143.556 168.181 142.292C168.144 141.805 168.144 141.222 168.181 140.995C168.219 140.736 167.658 140.606 166.314 140.606H164.409L164.671 142.292C165.007 144.528 165.679 145.371 167.397 145.76C170.572 146.506 172.7 144.982 172.7 141.903C172.7 140.185 172.327 139.569 169.825 137.267C167.883 135.517 167.546 134.804 168.48 134.544C168.704 134.479 168.966 134.739 169.04 135.16C169.152 135.808 169.414 135.906 170.982 136.003L172.775 136.1L172.551 134.868C172.103 132.697 171.244 132.016 168.854 131.919C166.986 131.821 166.613 131.919 165.791 132.632Z" fill="#2F8022"/>
<path d="M167.444 138.819L167.446 138.82C168.271 139.617 168.857 140.242 169.239 140.765C169.62 141.287 169.839 141.764 169.839 142.259C169.839 142.644 169.754 142.986 169.582 143.249C169.407 143.515 169.129 143.714 168.788 143.723C168.446 143.733 168.156 143.548 167.971 143.287C167.789 143.033 167.695 142.698 167.682 142.319C167.654 141.953 167.645 141.512 167.662 141.192C167.661 141.192 167.661 141.192 167.661 141.192C167.413 141.139 166.981 141.106 166.314 141.106H164.993L165.165 142.215L165.165 142.215L165.165 142.217C165.329 143.31 165.566 143.974 165.908 144.409C166.237 144.826 166.712 145.092 167.507 145.272L167.507 145.272L167.511 145.273C169.007 145.625 170.17 145.422 170.946 144.861C171.713 144.305 172.2 143.326 172.2 141.903C172.2 141.091 172.113 140.613 171.776 140.067C171.412 139.479 170.746 138.794 169.488 137.637C168.998 137.195 168.6 136.811 168.295 136.477C167.995 136.149 167.761 135.846 167.625 135.566C167.491 135.292 167.402 134.937 167.582 134.598C167.75 134.282 168.073 134.139 168.344 134.063C168.702 133.961 169.005 134.141 169.181 134.328C169.363 134.521 169.482 134.787 169.533 135.073L169.533 135.075C169.557 135.215 169.581 135.265 169.592 135.283C169.592 135.283 169.593 135.284 169.593 135.284C169.595 135.288 169.604 135.304 169.661 135.328C169.737 135.36 169.867 135.395 170.099 135.426C170.327 135.456 170.621 135.48 171.011 135.504L172.17 135.567L172.06 134.964C171.844 133.92 171.55 133.35 171.119 133.007C170.679 132.656 170.002 132.466 168.833 132.418L168.833 132.418L168.828 132.418C167.884 132.369 167.394 132.376 167.045 132.458C166.733 132.532 166.508 132.671 166.119 133.009C165.758 133.323 165.596 133.538 165.501 133.804C165.398 134.096 165.357 134.496 165.357 135.225C165.357 136.113 165.385 136.454 165.601 136.834C165.845 137.265 166.336 137.758 167.444 138.819L167.444 138.819Z" stroke="#115522" stroke-opacity="0.337255"/>
<path d="M128.631 133.572C127.138 134.22 126.577 135.549 127.138 137.137C127.511 138.304 127.474 138.531 126.801 139.342C125.793 140.509 125.42 142.778 125.98 144.269C126.503 145.565 128.071 146.311 129.453 145.922C129.939 145.792 131.283 145.695 132.441 145.76L134.607 145.825L133.86 144.334C132.926 142.421 132.926 141.87 133.897 140.8C134.607 140.022 134.644 139.828 134.233 139.115C133.636 138.175 132.889 138.11 132.366 138.985C132.142 139.342 131.806 139.569 131.582 139.471C131.395 139.342 131.731 138.661 132.366 137.915C132.964 137.202 133.486 136.327 133.486 136.035C133.486 134.933 132.628 133.831 131.507 133.475C130.088 133.053 129.789 133.053 128.631 133.572ZM130.872 135.873C130.872 136.133 130.723 136.457 130.499 136.554C130.312 136.651 130.125 136.457 130.125 136.1C130.125 135.711 130.312 135.419 130.499 135.419C130.723 135.419 130.872 135.614 130.872 135.873ZM129.64 142.324C130.088 143.167 129.714 144.074 129.042 143.718C128.557 143.458 128.482 141.578 128.93 141.578C129.117 141.578 129.453 141.935 129.64 142.324Z" fill="#2F8022"/>
<path d="M128.836 134.028L128.836 134.028L128.831 134.03C128.179 134.313 127.773 134.724 127.575 135.196C127.376 135.67 127.361 136.268 127.609 136.971L127.612 136.978L127.614 136.985C127.795 137.551 127.923 138.011 127.856 138.449C127.786 138.906 127.517 139.263 127.186 139.661L127.186 139.661L127.18 139.669C126.753 140.163 126.435 140.927 126.296 141.766C126.157 142.601 126.206 143.445 126.446 144.087C126.871 145.134 128.173 145.763 129.318 145.441L129.318 145.441L129.324 145.439C129.619 145.36 130.119 145.302 130.665 145.269C131.22 145.236 131.863 145.227 132.462 145.26L133.785 145.3L133.413 144.558L133.413 144.558L133.411 144.553C132.95 143.61 132.658 142.892 132.664 142.246C132.671 141.546 133.02 141.023 133.527 140.464L133.528 140.463C133.703 140.271 133.82 140.133 133.897 140.023C133.973 139.914 133.99 139.86 133.995 139.836C134.001 139.806 134.012 139.733 133.806 139.374C133.543 138.964 133.327 138.875 133.235 138.868C133.175 138.863 133.008 138.885 132.795 139.242L132.795 139.242L132.789 139.251C132.646 139.479 132.457 139.684 132.242 139.82C132.045 139.946 131.719 140.076 131.383 139.93L131.337 139.91L131.297 139.882C130.994 139.672 131.022 139.326 131.043 139.199C131.07 139.032 131.139 138.859 131.219 138.7C131.382 138.375 131.65 137.985 131.984 137.593C132.266 137.257 132.53 136.882 132.721 136.561C132.817 136.4 132.89 136.261 132.937 136.153C132.976 136.062 132.985 136.021 132.986 136.019C132.978 135.163 132.287 134.25 131.36 133.952C130.644 133.74 130.29 133.661 129.987 133.67C129.697 133.679 129.411 133.77 128.836 134.028ZM132.029 139.369C132.029 139.368 132.029 139.365 132.03 139.36C132.03 139.36 132.03 139.36 132.03 139.36C132.029 139.366 132.029 139.369 132.029 139.369ZM128.808 144.16L128.808 144.16L128.807 144.159C128.641 144.07 128.529 143.934 128.456 143.816C128.38 143.695 128.323 143.559 128.281 143.427C128.196 143.163 128.15 142.858 128.137 142.574C128.124 142.293 128.141 141.994 128.208 141.746C128.24 141.625 128.294 141.48 128.39 141.355C128.493 141.221 128.673 141.078 128.93 141.078C129.121 141.078 129.275 141.162 129.366 141.221C129.469 141.288 129.564 141.373 129.648 141.461C129.812 141.635 129.971 141.86 130.086 142.098C130.361 142.621 130.413 143.213 130.222 143.665C130.124 143.897 129.945 144.124 129.665 144.234C129.376 144.348 129.073 144.3 128.808 144.16ZM131.372 135.873C131.372 136.091 131.312 136.315 131.213 136.505C131.119 136.686 130.959 136.894 130.713 137.006C130.574 137.074 130.413 137.099 130.249 137.061C130.083 137.023 129.954 136.929 129.864 136.824C129.69 136.623 129.625 136.353 129.625 136.1C129.625 135.83 129.689 135.572 129.809 135.364C129.913 135.183 130.139 134.919 130.499 134.919C131.094 134.919 131.372 135.444 131.372 135.873Z" stroke="#115522" stroke-opacity="0.337255"/>
<path d="M74.3671 150.557C74.2177 150.655 74.1057 152.211 74.1057 153.961V157.138H75.4128C76.6826 157.138 76.7199 157.073 76.7572 155.906L76.8319 154.707L77.2054 155.906C77.5415 157.008 77.7283 157.138 78.774 157.138C79.8943 157.138 80.0064 157.008 80.3425 155.744L80.7533 154.382L80.7907 155.744C80.828 157.105 80.8654 157.138 82.1351 157.138H83.4423V153.702V150.298L81.687 150.395C79.969 150.493 79.9317 150.525 79.5209 151.854C78.998 153.767 78.774 153.767 78.2511 151.951L77.7656 150.331H76.1971C75.3007 150.331 74.4791 150.428 74.3671 150.557Z" fill="#2F8022"/>
<path d="M75.0486 150.892C74.931 150.906 74.8349 150.922 74.7615 150.937C74.7598 150.947 74.758 150.957 74.7562 150.967C74.7285 151.132 74.7018 151.373 74.6789 151.677C74.6334 152.281 74.6057 153.095 74.6057 153.961V156.638H75.4128C75.7358 156.638 75.943 156.633 76.0873 156.614C76.1441 156.606 76.1786 156.598 76.198 156.592C76.2031 156.576 76.21 156.549 76.2169 156.508C76.2388 156.377 76.2479 156.191 76.2575 155.89L76.2577 155.882L76.2582 155.875L76.3329 154.675L77.3093 154.558L77.6828 155.757L77.6828 155.757L77.6837 155.76C77.8598 156.338 77.9558 156.482 78.03 156.54C78.0942 156.59 78.225 156.638 78.774 156.638C79.0534 156.638 79.2298 156.629 79.3539 156.606C79.4661 156.585 79.5001 156.559 79.5165 156.544C79.5406 156.523 79.586 156.468 79.6484 156.311C79.7113 156.152 79.7747 155.934 79.8593 155.615L79.8614 155.607L79.8638 155.599L80.2746 154.238L81.2531 154.369L81.2905 155.73C81.3 156.079 81.3092 156.304 81.3326 156.463C81.3431 156.535 81.3544 156.576 81.3617 156.596C81.3793 156.602 81.4103 156.609 81.4606 156.616C81.6036 156.635 81.8079 156.638 82.1351 156.638H82.9423V153.702V150.827L81.7152 150.895C81.7152 150.895 81.7151 150.895 81.7151 150.895C81.2792 150.919 80.9795 150.939 80.7552 150.972C80.5316 151.005 80.4402 151.046 80.394 151.077C80.3581 151.101 80.311 151.145 80.2453 151.288C80.1743 151.442 80.1053 151.657 80.001 151.994C79.8708 152.47 79.7519 152.854 79.6353 153.128C79.5775 153.263 79.5086 153.399 79.4218 153.511C79.3436 153.611 79.1801 153.782 78.9185 153.8C78.6429 153.817 78.4576 153.654 78.3675 153.551C78.2727 153.442 78.2 153.306 78.1416 153.178C78.0224 152.917 77.9021 152.546 77.7714 152.092L77.3934 150.831H76.1971C75.7646 150.831 75.3559 150.854 75.0486 150.892ZM81.3417 156.589C81.3416 156.589 81.3421 156.589 81.343 156.59L81.3417 156.589Z" stroke="#115522" stroke-opacity="0.337255"/>
<path d="M87.8491 153.734L87.7371 157.138H91.2103C94.6088 157.138 94.6462 157.138 94.6462 156.327C94.6462 155.549 94.5342 155.517 92.5921 155.517C90.9489 155.517 90.5381 155.42 90.5381 154.998C90.5381 154.577 90.8742 154.512 92.2187 154.609C93.8246 154.707 93.8993 154.674 93.8993 153.831C93.8993 152.989 93.7872 152.924 92.2187 152.924C91.285 152.924 90.5381 152.762 90.5381 152.6C90.5381 152.405 91.4717 152.275 92.6295 152.275C94.6462 152.275 94.6835 152.275 94.5715 151.368C94.4595 150.493 94.4595 150.493 91.2103 150.395L87.9612 150.298L87.8491 153.734Z" fill="#2F8022"/>
<path d="M88.3489 153.75L88.3489 153.751L88.2538 156.638H91.2103C92.0628 156.638 92.6945 156.638 93.1678 156.625C93.6505 156.613 93.9272 156.587 94.0891 156.549C94.1105 156.544 94.1277 156.54 94.1413 156.536C94.1453 156.488 94.1462 156.426 94.1462 156.327C94.1462 156.233 94.1444 156.166 94.1396 156.114C94.1387 156.104 94.1377 156.095 94.1366 156.087C94.07 156.067 93.9429 156.046 93.7056 156.033C93.4378 156.019 93.0805 156.017 92.5921 156.017C91.784 156.017 91.2063 155.995 90.8277 155.901C90.6335 155.852 90.4227 155.769 90.2634 155.599C90.088 155.413 90.0381 155.19 90.0381 154.998C90.0381 154.831 90.0711 154.616 90.2255 154.428C90.3767 154.245 90.5828 154.162 90.7644 154.122C91.1019 154.046 91.5995 154.063 92.2518 154.11C92.6556 154.135 92.9421 154.15 93.1533 154.147C93.2578 154.146 93.3319 154.141 93.3846 154.133C93.3863 154.133 93.388 154.133 93.3896 154.133C93.3957 154.075 93.3993 153.984 93.3993 153.831C93.3993 153.642 93.3919 153.544 93.3808 153.49C93.3416 153.477 93.2595 153.458 93.1015 153.445C92.894 153.428 92.6128 153.424 92.2187 153.424C91.7267 153.424 91.2727 153.381 90.9301 153.313C90.7625 153.279 90.5984 153.235 90.4646 153.175C90.3996 153.146 90.3147 153.101 90.2383 153.032C90.1667 152.968 90.0381 152.823 90.0381 152.6C90.0381 152.357 90.186 152.205 90.2687 152.139C90.3557 152.07 90.4524 152.026 90.5269 151.999C90.6811 151.941 90.8742 151.9 91.0755 151.87C91.4864 151.808 92.0359 151.775 92.6295 151.775C93.1391 151.775 93.5047 151.775 93.7747 151.762C93.9387 151.754 94.0422 151.741 94.1059 151.73C94.1027 151.669 94.0934 151.576 94.0754 151.43C94.0464 151.204 94.0316 151.135 94.019 151.105C94.0074 151.098 93.9806 151.085 93.9284 151.07C93.7774 151.026 93.5194 150.992 93.0607 150.964C92.6112 150.938 92.0109 150.92 91.1954 150.895L88.4447 150.813L88.3489 153.75ZM90.8662 152.259C90.8662 152.259 90.8669 152.259 90.8685 152.26C90.867 152.259 90.8663 152.259 90.8662 152.259ZM94.186 156.519C94.1859 156.518 94.1849 156.519 94.1833 156.52C94.1852 156.519 94.1861 156.519 94.186 156.519Z" stroke="#115522" stroke-opacity="0.337255"/>
<path d="M99.0157 150.557C98.8663 150.655 98.7543 152.211 98.7543 153.961V157.138H102.153H105.514L105.402 156.23C105.29 155.452 105.141 155.355 104.095 155.452C101.63 155.679 101.369 155.42 101.369 152.729V150.331H100.323C99.7253 150.331 99.1278 150.428 99.0157 150.557Z" fill="#2F8022"/>
<path d="M99.5711 150.888C99.5082 150.899 99.4555 150.91 99.4131 150.921C99.4105 150.935 99.4077 150.95 99.4049 150.967C99.3771 151.132 99.3505 151.373 99.3276 151.677C99.2821 152.281 99.2543 153.095 99.2543 153.961V156.638H102.153H104.948L104.906 156.296C104.879 156.109 104.855 156.008 104.832 155.95C104.83 155.945 104.829 155.941 104.827 155.938C104.808 155.933 104.769 155.926 104.701 155.923C104.576 155.917 104.4 155.926 104.141 155.95L104.141 155.95C103.525 156.007 103.005 156.038 102.583 155.999C102.155 155.959 101.758 155.841 101.454 155.539C101.157 155.242 101.024 154.84 100.954 154.4C100.884 153.957 100.869 153.401 100.869 152.729V150.831H100.323C100.048 150.831 99.7777 150.853 99.5711 150.888Z" stroke="#115522" stroke-opacity="0.337255"/>
<path d="M111.265 150.622C111.191 150.784 110.593 152.049 109.996 153.442C109.398 154.869 108.8 156.263 108.651 156.554C108.427 157.04 108.614 157.138 109.772 157.138C110.518 157.138 111.377 156.911 111.714 156.652C112.274 156.133 113.73 156.295 113.992 156.846C114.104 157.105 117.054 157.3 117.054 157.04C117.054 157.008 116.419 155.517 115.635 153.734L114.216 150.525L112.834 150.46C112.087 150.395 111.377 150.493 111.265 150.622ZM113.282 154.285C113.319 154.447 113.058 154.545 112.759 154.545C112.162 154.545 112.05 154.253 112.46 153.378C112.685 152.859 112.722 152.859 112.983 153.442C113.133 153.767 113.282 154.156 113.282 154.285Z" fill="#2F8022"/>
<path d="M113.815 156.057C114.003 156.144 114.208 156.278 114.351 156.476C114.41 156.492 114.494 156.511 114.603 156.53C114.872 156.576 115.233 156.615 115.597 156.639C115.871 156.656 116.137 156.665 116.359 156.663C116.306 156.539 116.246 156.397 116.179 156.241C115.923 155.643 115.569 154.826 115.177 153.936C115.177 153.936 115.177 153.936 115.177 153.935L113.883 151.01L112.81 150.96L112.801 150.959L112.791 150.958C112.449 150.929 112.119 150.937 111.868 150.965C111.774 150.976 111.698 150.989 111.64 151.001C111.445 151.421 110.951 152.484 110.456 153.638C109.935 154.88 109.404 156.125 109.173 156.621C109.321 156.633 109.515 156.638 109.772 156.638C110.099 156.638 110.459 156.587 110.773 156.507C111.089 156.427 111.302 156.331 111.396 156.265C111.831 155.88 112.498 155.801 113.012 155.85C113.29 155.876 113.571 155.944 113.815 156.057ZM116.821 156.628C116.821 156.628 116.82 156.629 116.818 156.629C116.82 156.629 116.821 156.628 116.821 156.628ZM111.765 153.807C111.813 153.615 111.897 153.402 112.004 153.172C112.057 153.051 112.114 152.923 112.174 152.826C112.203 152.777 112.254 152.701 112.332 152.635C112.416 152.564 112.567 152.477 112.765 152.5C112.946 152.521 113.064 152.622 113.12 152.68C113.179 152.741 113.223 152.808 113.253 152.859C113.313 152.96 113.375 153.095 113.439 153.236C113.517 153.407 113.597 153.597 113.659 153.766C113.689 153.85 113.717 153.935 113.739 154.013C113.753 154.066 113.773 154.146 113.78 154.23C113.804 154.405 113.753 154.568 113.658 154.694C113.566 154.817 113.445 154.889 113.354 154.931C113.169 155.015 112.951 155.045 112.759 155.045C112.58 155.045 112.376 155.024 112.192 154.939C111.982 154.841 111.819 154.667 111.75 154.425C111.691 154.212 111.718 153.994 111.765 153.807ZM113.029 153.344C113.029 153.344 113.028 153.345 113.027 153.347C113.028 153.345 113.029 153.344 113.029 153.344Z" stroke="#115522" stroke-opacity="0.337255"/>
<path d="M120.789 153.702V157.138H121.909C122.992 157.138 123.029 157.073 123.067 155.582L123.104 154.058L123.664 155.582C124.15 156.976 124.299 157.138 125.27 157.138C126.241 157.138 126.391 156.976 126.914 155.582L127.436 154.058L127.324 155.582L127.175 157.138H128.669H130.163L130.051 153.799L129.939 150.493L128.183 150.46L126.428 150.395L125.943 152.243L125.494 154.058L124.859 152.275L124.262 150.493L122.507 150.395L120.789 150.298V153.702Z" fill="#2F8022"/>
<path d="M126.123 156.194C126.214 156.008 126.313 155.758 126.443 155.413L126.963 153.896L127.935 154.095L127.823 155.618L127.823 155.618L127.822 155.63L127.725 156.638H128.669H129.646L129.551 153.816L129.551 153.816L129.455 150.984L128.174 150.96L128.174 150.96L128.165 150.96L126.81 150.91L126.427 152.366L125.98 154.178L125.581 155.793L125.023 154.226L124.388 152.443L124.388 152.443L124.385 152.434L123.896 150.973L122.479 150.895L122.478 150.895L121.289 150.827V153.702V156.638H121.909C122.189 156.638 122.347 156.632 122.449 156.613C122.465 156.61 122.476 156.607 122.484 156.605C122.494 156.578 122.511 156.517 122.526 156.395C122.548 156.207 122.558 155.948 122.567 155.57C122.567 155.569 122.567 155.569 122.567 155.569L122.604 154.046L123.573 153.886L124.134 155.409L124.134 155.409L124.137 155.417C124.258 155.766 124.351 156.017 124.438 156.203C124.524 156.391 124.588 156.479 124.635 156.525C124.696 156.585 124.781 156.638 125.27 156.638C125.757 156.638 125.847 156.586 125.914 156.521C125.964 156.473 126.031 156.383 126.123 156.194ZM122.504 156.598C122.504 156.598 122.504 156.599 122.503 156.599C122.504 156.599 122.504 156.598 122.504 156.598Z" stroke="#115522" stroke-opacity="0.337255"/>
<path d="M134.495 150.557C134.345 150.655 134.233 152.211 134.233 153.961V157.138H135.727H137.221V154.253C137.221 152.664 137.109 151.141 136.997 150.849C136.773 150.331 134.98 150.136 134.495 150.557Z" fill="#2F8022"/>
<path d="M134.896 150.9C134.892 150.92 134.888 150.942 134.884 150.967C134.856 151.132 134.83 151.373 134.807 151.677C134.761 152.281 134.733 153.095 134.733 153.961V156.638H135.727H136.721V154.253C136.721 153.469 136.693 152.703 136.652 152.099C136.632 151.796 136.608 151.539 136.583 151.343C136.571 151.245 136.559 151.166 136.548 151.107C136.544 151.091 136.542 151.077 136.539 151.066C136.52 151.052 136.476 151.023 136.391 150.988C136.237 150.926 136.024 150.874 135.788 150.848C135.553 150.821 135.319 150.821 135.127 150.848C135.032 150.861 134.956 150.879 134.9 150.899C134.898 150.899 134.897 150.9 134.896 150.9Z" stroke="#115522" stroke-opacity="0.337255"/>
<path d="M141.628 153.734L141.516 157.138H142.711C143.869 157.138 143.906 157.073 144.018 155.647L144.13 154.156L145.4 155.647C146.558 156.976 146.857 157.138 148.164 157.138C149.359 157.138 149.583 157.04 149.396 156.619C149.284 156.327 149.172 154.804 149.172 153.215V150.331H148.052C146.969 150.331 146.931 150.363 146.931 151.854L146.894 153.41L145.363 151.984C144.466 151.173 143.421 150.525 142.786 150.428L141.74 150.298L141.628 153.734Z" fill="#2F8022"/>
<path d="M142.128 153.75L142.128 153.751L142.033 156.638H142.711C143.009 156.638 143.185 156.632 143.305 156.612C143.347 156.605 143.37 156.598 143.382 156.594C143.391 156.576 143.414 156.522 143.437 156.392C143.469 156.216 143.491 155.971 143.52 155.608C143.52 155.608 143.52 155.608 143.52 155.607L143.632 154.118L143.723 152.906L144.511 153.831L145.779 155.32C146.366 155.994 146.674 156.294 146.963 156.451C147.228 156.593 147.518 156.638 148.164 156.638C148.458 156.638 148.68 156.632 148.845 156.618C148.856 156.617 148.867 156.616 148.877 156.615C148.852 156.502 148.833 156.374 148.818 156.25C148.79 156.029 148.765 155.751 148.743 155.438C148.7 154.81 148.672 154.02 148.672 153.215V150.831H148.052C147.768 150.831 147.609 150.834 147.503 150.852C147.494 150.853 147.487 150.855 147.48 150.856C147.472 150.886 147.461 150.94 147.452 151.035C147.434 151.219 147.431 151.475 147.431 151.854H147.431L147.431 151.866L147.394 153.422L147.367 154.534L146.553 153.776L145.025 152.352C144.598 151.967 144.139 151.622 143.716 151.365C143.285 151.103 142.935 150.958 142.716 150.923L142.222 150.862L142.128 153.75ZM143.392 156.589C143.392 156.589 143.391 156.589 143.388 156.591C143.391 156.589 143.392 156.589 143.392 156.589ZM148.958 156.872C148.958 156.872 148.958 156.871 148.957 156.869C148.958 156.871 148.958 156.872 148.958 156.872Z" stroke="#115522" stroke-opacity="0.337255"/>
<path d="M155.371 151.757C155.035 152.47 154.438 153.896 154.027 154.869C153.616 155.841 153.28 156.749 153.28 156.878C153.28 157.267 155.82 157.17 155.969 156.781C156.156 156.263 158.06 156.198 158.546 156.684C158.957 157.138 161.496 157.332 161.496 156.911C161.496 156.814 160.899 155.29 160.189 153.572L158.845 150.46L157.388 150.428C156.006 150.395 155.894 150.46 155.371 151.757ZM157.762 154.091C157.762 154.35 157.538 154.544 157.239 154.544C156.903 154.544 156.791 154.318 156.903 153.896C157.127 153.183 157.762 153.313 157.762 154.091Z" fill="#2F8022"/>
<path d="M155.835 151.944L155.83 151.957L155.824 151.97C155.529 152.596 155.025 153.79 154.626 154.736C154.578 154.849 154.532 154.959 154.488 155.063C154.285 155.544 154.101 156.007 153.968 156.364C153.935 156.452 153.906 156.533 153.881 156.605C154.065 156.625 154.3 156.631 154.55 156.622C154.857 156.61 155.156 156.576 155.377 156.527C155.461 156.508 155.523 156.49 155.564 156.474C155.636 156.354 155.733 156.265 155.824 156.201C155.947 156.113 156.087 156.05 156.223 156.005C156.494 155.914 156.815 155.867 157.127 155.856C157.442 155.845 157.773 155.868 158.071 155.932C158.35 155.993 158.675 156.106 158.9 156.331L158.908 156.339L158.909 156.34C158.913 156.343 158.936 156.359 158.992 156.384C159.068 156.417 159.173 156.452 159.304 156.486C159.566 156.552 159.892 156.602 160.213 156.627C160.464 156.646 160.694 156.649 160.876 156.636C160.815 156.473 160.736 156.269 160.643 156.032C160.407 155.428 160.082 154.622 159.729 153.767L158.513 150.953L157.377 150.928L157.376 150.928C157.027 150.919 156.791 150.919 156.615 150.937C156.444 150.954 156.372 150.985 156.332 151.012C156.291 151.039 156.233 151.093 156.149 151.243C156.061 151.398 155.967 151.616 155.835 151.944ZM153.775 156.939C153.775 156.939 153.775 156.938 153.776 156.935C153.775 156.938 153.775 156.939 153.775 156.939ZM155.621 156.448C155.62 156.448 155.616 156.45 155.608 156.455C155.617 156.451 155.621 156.448 155.621 156.448ZM161.007 157.006C161.006 157.005 161.006 157.004 161.006 157.003C161.008 157.015 161.01 157.017 161.007 157.006ZM156.419 153.768L156.422 153.757L156.426 153.746C156.565 153.301 156.948 152.821 157.522 152.946C158.059 153.062 158.262 153.616 158.262 154.091C158.262 154.69 157.745 155.044 157.239 155.044C156.956 155.044 156.628 154.939 156.458 154.606C156.315 154.329 156.354 154.014 156.419 153.768Z" stroke="#115522" stroke-opacity="0.337255"/>
</g>
<defs>
<filter id="filter0_d_0_1" x="35" y="9.00002" width="160" height="161" filterUnits="userSpaceOnUse" color-interpolation-filters="sRGB">
<feFlood flood-opacity="0" result="BackgroundImageFix"/>
<feColorMatrix in="SourceAlpha" type="matrix" values="0 0 0 0 0 0 0 0 0 0 0 0 0 0 0 0 0 0 127 0" result="hardAlpha"/>
<feOffset dy="4"/>
<feGaussianBlur stdDeviation="2"/>
<feComposite in2="hardAlpha" operator="out"/>
<feColorMatrix type="matrix" values="0 0 0 0 0 0 0 0 0 0 0 0 0 0 0 0 0 0 0.25 0"/>
<feBlend mode="normal" in2="BackgroundImageFix" result="effect1_dropShadow_0_1"/>
<feBlend mode="normal" in="SourceGraphic" in2="effect1_dropShadow_0_1" result="shape"/>
</filter>
</defs>
</svg>
