<?xml version="1.0" standalone="no"?>
<!DOCTYPE svg PUBLIC "-//W3C//DTD SVG 20010904//EN"
 "http://www.w3.org/TR/2001/REC-SVG-20010904/DTD/svg10.dtd">
<svg version="1.0" xmlns="http://www.w3.org/2000/svg"
 width="509.000000pt" height="246.000000pt" viewBox="0 0 509.000000 246.000000"
 preserveAspectRatio="xMidYMid meet">

<g transform="translate(0.000000,246.000000) scale(0.100000,-0.100000)"
fill="#000000" stroke="none">
<path d="M2264 2376 c-99 -43 -95 -161 6 -207 110 -49 115 -53 118 -86 2 -23
-3 -35 -20 -47 -26 -19 -101 -21 -147 -5 -38 13 -56 2 -46 -30 14 -45 154 -52
235 -11 51 26 70 55 70 105 0 52 -34 87 -111 116 -66 25 -89 45 -89 75 0 48
68 68 136 39 31 -13 36 -13 41 0 8 23 -4 44 -32 55 -37 14 -124 12 -161 -4z"/>
<path d="M2613 2375 c-46 -20 -68 -60 -64 -117 2 -32 52 -77 109 -98 71 -27
92 -45 92 -82 0 -42 -49 -61 -120 -48 -28 5 -60 15 -71 21 -19 10 -20 8 -17
-22 2 -27 9 -35 38 -45 43 -15 123 -17 172 -4 52 15 88 61 88 112 0 33 -6 46
-34 73 -19 18 -58 41 -86 51 -86 31 -114 76 -68 108 28 20 64 20 117 1 l41
-14 0 28 c0 24 -6 31 -31 40 -43 15 -127 13 -166 -4z"/>
<path d="M2985 2380 c-11 -17 124 -420 143 -428 9 -3 37 -6 61 -7 l44 0 28
126 c15 69 29 137 31 150 7 50 24 15 69 -136 26 -86 51 -161 56 -166 5 -5 32
-12 60 -16 44 -5 52 -3 57 13 3 11 25 117 50 237 40 201 42 218 26 227 -22 12
-58 2 -64 -19 -3 -9 -10 -45 -15 -81 -19 -118 -51 -283 -56 -288 -9 -9 -11 -2
-65 187 -30 100 -60 189 -67 197 -20 20 -70 18 -81 -3 -5 -10 -15 -43 -21 -73
-32 -156 -64 -280 -72 -280 -5 0 -9 5 -9 12 0 27 -94 344 -104 350 -16 11 -64
10 -71 -2z"/>
<path d="M4271 2379 c-56 -22 -81 -73 -81 -165 0 -85 21 -125 107 -203 37 -35
76 -75 85 -89 37 -55 13 -142 -38 -142 -31 0 -93 31 -118 59 -11 12 -23 21
-29 21 -17 0 3 -84 26 -108 57 -61 153 -91 204 -64 34 19 53 73 53 152 0 118
-12 144 -112 241 -99 95 -116 135 -84 184 22 33 81 35 120 4 34 -27 44 -16 38
39 -3 36 -10 47 -36 63 -33 20 -95 24 -135 8z"/>
<path d="M181 2367 c-15 -15 -16 -927 -1 -927 6 0 61 21 121 47 117 49 129 61
129 124 0 16 -6 32 -13 35 -7 2 -46 -7 -86 -21 -41 -14 -76 -25 -78 -25 -2 0
-3 62 -3 139 l0 138 38 7 c20 3 54 11 75 16 l37 11 0 58 0 58 -47 -8 c-27 -5
-60 -11 -75 -13 l-28 -5 0 118 c0 135 -3 131 97 131 28 0 58 3 67 6 18 7 31
63 22 99 l-7 26 -118 -2 c-71 -1 -124 -6 -130 -12z"/>
<path d="M520 2365 c0 -8 25 -92 55 -187 l54 -173 -64 -200 c-58 -177 -73
-235 -61 -235 1 0 17 5 34 11 35 12 38 19 99 217 21 68 42 123 47 123 5 0 26
-53 47 -117 21 -64 42 -121 47 -126 13 -13 82 17 82 36 0 8 -22 78 -50 156
-27 78 -50 151 -50 162 0 10 27 88 60 173 33 85 60 159 60 164 0 6 -18 11 -39
11 l-39 0 -46 -126 c-25 -69 -46 -130 -46 -135 0 -16 -18 -10 -24 9 -2 9 -21
70 -41 135 l-36 117 -45 0 c-32 0 -44 -4 -44 -15z"/>
<path d="M971 2358 c-4 -13 -11 -111 -15 -218 -3 -107 -9 -243 -13 -302 -6
-107 -6 -108 16 -108 52 0 59 12 66 130 l8 110 41 10 c61 16 80 25 121 62 52
45 75 99 75 176 0 122 -49 161 -203 162 -82 0 -88 -1 -96 -22z m186 -82 c24
-21 28 -31 27 -74 -2 -54 -24 -106 -52 -121 -9 -5 -34 -12 -55 -16 l-38 -7 2
113 c0 63 3 116 4 120 2 3 22 6 43 7 30 2 47 -3 69 -22z"/>
<path d="M1387 2373 c-3 -5 -10 -110 -16 -233 -6 -124 -13 -242 -15 -262 -4
-35 -2 -38 21 -38 50 0 63 16 63 78 0 31 3 81 6 110 6 49 9 52 35 52 57 0 76
-24 113 -137 10 -29 23 -53 31 -53 33 0 75 14 75 25 0 30 -63 162 -87 182
l-26 21 32 16 c74 39 96 148 42 208 l-29 33 -120 4 c-66 1 -122 -1 -125 -6z
m200 -75 c21 -16 25 -65 9 -96 -16 -32 -51 -49 -106 -54 -31 -3 -35 0 -34 20
0 12 1 49 2 81 2 53 4 60 25 64 29 6 89 -3 104 -15z"/>
<path d="M1826 2278 c-15 -267 -18 -346 -10 -350 5 -3 68 2 139 11 128 16 130
16 130 41 0 28 -3 29 -117 17 l-68 -6 0 73 0 73 77 7 c74 6 92 15 93 44 0 9
-23 12 -82 12 l-83 0 5 62 5 63 93 3 c90 3 92 3 92 27 l0 25 -134 0 -134 0 -6
-102z"/>
<path d="M3807 2268 c-16 -62 -46 -176 -68 -252 -42 -153 -41 -169 15 -164 27
3 31 8 42 51 7 27 15 51 18 54 3 3 47 -3 99 -12 l94 -18 19 -69 c10 -38 24
-73 30 -79 20 -16 74 -23 74 -9 0 17 -56 208 -127 433 l-57 177 -55 0 -56 0
-28 -112z m171 -253 c-2 -2 -36 1 -76 7 -49 8 -72 16 -72 25 0 16 47 209 57
233 3 8 25 -47 50 -124 24 -76 43 -140 41 -141z"/>
<path d="M4555 2371 c-3 -6 -1 -175 5 -378 12 -399 13 -403 68 -403 l25 0 -6
170 c-4 94 -3 170 1 170 18 -1 171 -38 181 -44 7 -5 11 -66 11 -191 0 -179 1
-184 22 -199 12 -9 30 -16 40 -16 17 0 18 15 17 223 -1 122 -4 323 -8 447 l-6
225 -35 0 -35 0 -3 -172 c-2 -157 -4 -173 -20 -172 -9 0 -51 6 -92 13 l-75 12
-6 139 c-4 77 -7 150 -8 163 -1 18 -7 22 -35 22 -19 0 -37 -4 -41 -9z"/>
<path d="M2545 1779 c-206 -8 -366 -23 -412 -39 -17 -6 -53 -15 -80 -20 l-48
-8 58 -1 c31 0 57 -4 57 -9 0 -4 -19 -13 -42 -20 -24 -8 -68 -25 -98 -39 -30
-14 -64 -29 -75 -34 -24 -11 -58 -32 -65 -40 -7 -8 -73 -43 -83 -44 -4 0 -12
-7 -17 -15 -5 -8 -10 -11 -10 -6 0 6 -13 -2 -28 -17 -16 -15 -31 -25 -34 -22
-3 3 -20 -8 -38 -25 -18 -16 -36 -30 -40 -30 -15 0 -18 -28 -4 -34 9 -3 95 -6
192 -7 138 0 172 -3 152 -11 -16 -8 -128 -12 -315 -13 -159 -1 -279 2 -265 6
79 23 -156 -11 -256 -36 -39 -11 -78 -30 -110 -55 -85 -68 -91 -71 -148 -77
-58 -6 -57 -6 -60 37 -1 22 -84 27 -92 5 -4 -10 -13 -13 -25 -10 -11 4 -19 2
-19 -4 0 -5 -27 -22 -60 -37 -33 -15 -60 -33 -60 -40 0 -9 -11 -14 -31 -14
-17 0 -28 -4 -24 -10 3 -5 -2 -10 -12 -10 -13 0 -27 -16 -41 -45 -26 -54 -26
-55 -7 -55 8 0 24 -9 35 -20 12 -12 26 -20 33 -19 30 4 48 -2 41 -13 -4 -6 -3
-8 4 -5 13 9 42 -2 42 -14 0 -11 -31 -5 -109 21 -86 29 -108 4 -49 -57 31 -32
34 -58 3 -33 -11 9 -15 9 -15 1 0 -7 -4 -10 -10 -6 -5 3 -16 -5 -23 -17 -21
-33 1 -387 26 -436 10 -17 22 -32 27 -32 5 0 10 -10 12 -22 2 -19 10 -24 47
-26 37 -3 50 -11 96 -57 l52 -54 -31 -7 -31 -7 30 -10 c42 -15 2057 -22 2083
-8 39 21 910 59 1464 64 l326 3 35 27 c42 32 78 92 103 170 15 49 24 61 59 82
58 34 63 41 73 126 5 41 19 93 29 114 19 36 19 42 6 74 -11 27 -12 40 -4 53
17 28 14 223 -4 258 -9 17 -21 30 -28 30 -7 0 -35 -22 -61 -49 -55 -55 -79
-66 -98 -43 -24 29 -97 54 -135 47 -47 -9 -101 -46 -137 -95 -28 -38 -46 -44
-46 -15 0 41 -107 89 -224 101 -130 13 -1074 -68 -1128 -97 -10 -5 -18 -18
-18 -29 0 -24 -10 -50 -20 -50 -4 0 -23 26 -43 58 -19 31 -49 70 -66 86 -28
26 -31 36 -31 87 0 56 1 57 38 75 25 13 78 22 162 29 l125 10 10 -30 c8 -25
16 -30 48 -33 25 -2 48 3 65 15 18 12 42 17 74 15 25 -2 49 2 53 8 3 5 17 10
31 10 14 0 22 4 19 10 -4 6 6 10 22 10 16 0 34 5 40 11 7 7 89 15 210 20 230
10 258 14 286 40 11 10 26 19 32 19 6 0 18 9 28 20 10 12 23 17 33 13 12 -4
15 -3 10 5 -4 7 6 28 23 48 34 42 32 57 -16 98 -18 16 -33 34 -33 40 0 7 3 8
8 0 4 -5 22 -16 40 -23 17 -8 32 -17 32 -22 0 -5 6 -9 13 -9 6 0 26 -13 44
-28 17 -15 41 -35 52 -44 26 -22 27 -38 3 -38 -36 0 -157 -49 -167 -67 -5 -10
-21 -33 -33 -51 -13 -18 -22 -35 -21 -37 2 -1 76 21 164 50 156 52 158 53 95
49 l-65 -5 45 20 c25 11 57 20 73 20 15 1 27 7 27 14 -1 15 -234 161 -355 220
-108 54 -198 83 -320 102 -105 17 -777 26 -1070 14z m1356 -126 c14 -2 26 -11
26 -18 0 -9 -11 -7 -41 8 -47 23 -60 34 -31 23 11 -4 32 -10 46 -13z m-51
-129 c0 -2 -7 -4 -15 -4 -8 0 -15 4 -15 10 0 5 7 7 15 4 8 -4 15 -8 15 -10z
m25 6 c3 -5 1 -10 -4 -10 -6 0 -11 5 -11 10 0 6 2 10 4 10 3 0 8 -4 11 -10z
m-369 -86 c-6 -15 -9 -16 -15 -5 -7 11 -13 9 -30 -8 -11 -11 -27 -21 -33 -21
-8 1 -5 8 7 18 18 15 24 30 27 70 1 8 11 4 26 -12 17 -16 23 -30 18 -42z m217
-41 c-7 -2 -21 -2 -30 0 -10 3 -4 5 12 5 17 0 24 -2 18 -5z m-1378 -51 c-3 -3
-11 0 -18 7 -9 10 -8 11 6 5 10 -3 15 -9 12 -12z m1088 11 c-7 -2 -21 -2 -30
0 -10 3 -4 5 12 5 17 0 24 -2 18 -5z m-70 -10 c-7 -2 -19 -2 -25 0 -7 3 -2 5
12 5 14 0 19 -2 13 -5z m-1046 -20 c57 6 36 -8 -27 -18 -25 -4 -49 -11 -55
-15 -5 -4 -30 -10 -55 -14 -132 -21 -378 -56 -395 -56 -71 0 144 63 290 85
113 16 158 25 163 30 3 2 11 0 19 -6 8 -7 32 -9 60 -6z m-20 11 c-3 -3 -12 -4
-19 -1 -8 3 -5 6 6 6 11 1 17 -2 13 -5z m-957 -45 c-19 -6 -57 -16 -85 -24
-27 -8 -79 -19 -115 -26 -160 -28 -178 -22 -77 28 59 29 68 30 187 31 98 0
117 -2 90 -9z m284 -9 c-28 -10 -66 -21 -85 -25 l-34 -7 24 18 c27 19 71 32
116 32 25 0 22 -2 -21 -18z m431 -172 c7 -7 -62 -15 -200 -24 -55 -3 -117 -7
-138 -9 -21 -1 -35 0 -32 4 4 3 16 6 28 7 12 0 63 6 112 12 149 20 218 23 230
10z m15 -28 c0 -5 -7 -10 -15 -10 -8 0 -15 -7 -15 -16 0 -18 -31 -15 -38 4 -2
8 2 10 14 5 11 -4 15 -3 10 5 -3 6 3 12 16 15 13 2 24 5 26 6 1 0 2 -3 2 -9z
m352 -53 c-22 -29 -49 -71 -61 -95 -12 -23 -24 -42 -26 -42 -3 0 -5 20 -5 45
0 39 5 50 41 86 32 32 63 53 87 58 1 1 -15 -23 -36 -52z m-875 37 c-3 -3 -12
-4 -19 -1 -8 3 -5 6 6 6 11 1 17 -2 13 -5z m369 -4 c8 0 11 -6 8 -15 -4 -10 0
-15 12 -15 18 -1 18 -1 0 -15 -30 -23 -138 -20 -186 5 -21 11 -41 24 -45 30
-9 14 2 13 28 -4 36 -23 68 -30 62 -14 -7 18 41 38 79 32 16 -2 35 -4 42 -4z
m-1412 -15 c-4 -8 -8 -15 -10 -15 -2 0 -4 7 -4 15 0 8 4 15 10 15 5 0 7 -7 4
-15z m59 -22 c-9 -16 -19 -30 -21 -33 -5 -7 -22 23 -21 40 0 10 3 8 8 -5 8
-19 8 -19 15 3 4 12 14 22 22 22 12 0 12 -5 -3 -27z m1020 10 c-13 -2 -35 -2
-50 0 -16 2 -5 4 22 4 28 0 40 -2 28 -4z m145 -24 c52 -24 77 -30 110 -26 63
7 61 -10 -3 -18 -45 -5 -59 -3 -79 12 -13 11 -42 25 -65 33 -22 7 -41 17 -41
22 0 12 4 11 78 -23z m-649 -25 c2 -2 -12 -4 -32 -4 -20 0 -38 4 -42 9 -5 9
64 4 74 -5z m948 10 c-3 -3 -12 -4 -19 -1 -8 3 -5 6 6 6 11 1 17 -2 13 -5z
m60 -19 c-15 -14 -33 -25 -40 -25 -8 0 -7 3 2 9 12 7 11 10 -5 14 -10 2 -7 3
9 2 15 -1 32 4 38 12 6 7 14 13 18 13 3 0 -7 -12 -22 -25z m-94 -12 c-7 -2
-21 -2 -30 0 -10 3 -4 5 12 5 17 0 24 -2 18 -5z m700 -50 c64 -61 97 -172 98
-322 0 -114 -23 -197 -74 -269 -79 -110 -186 -92 -252 43 l-27 55 25 30 c14
16 31 45 37 65 13 38 36 49 27 12 -7 -26 6 -52 22 -43 14 9 3 -22 -34 -94 -15
-29 -22 -49 -17 -46 5 3 20 -10 33 -29 19 -28 31 -35 57 -35 43 0 48 16 30
101 -9 41 -12 72 -6 75 5 3 -7 24 -27 46 -20 22 -34 43 -30 46 4 4 12 0 18 -8
7 -8 25 -22 41 -30 16 -8 31 -21 34 -29 3 -8 0 -11 -6 -7 -19 11 -19 -19 0
-82 17 -55 39 -84 53 -70 3 3 -3 30 -14 62 -14 44 -15 54 -4 44 20 -16 28 0
44 79 7 35 16 58 19 53 10 -16 -7 -109 -25 -136 -13 -20 -13 -24 -1 -24 15 0
19 11 41 114 14 63 14 70 -1 81 -10 6 -14 17 -10 23 5 8 -4 12 -26 13 l-33 1
38 8 c21 4 43 12 50 19 8 8 -10 11 -74 13 -46 0 -69 3 -50 5 24 3 30 7 21 13
-10 6 -4 12 23 23 60 25 62 79 7 155 -30 42 -59 48 -61 13 -1 -9 -4 -5 -8 9
-7 24 -8 23 -14 -10 -13 -63 -59 -180 -69 -174 -10 7 -8 31 12 128 10 51 9 61
-4 74 -14 15 -19 13 -48 -13 l-33 -30 35 38 c57 62 124 66 183 10z m1796 31
c73 -43 116 -178 108 -339 -4 -100 -38 -217 -62 -217 -6 0 -15 16 -22 36 -10
28 -10 40 2 62 7 15 16 49 20 75 4 27 10 47 14 44 8 -4 -2 -86 -14 -125 -4
-11 -2 -20 3 -20 11 0 31 76 34 135 3 37 1 40 -26 43 -22 3 -26 6 -15 13 12 7
12 9 -1 9 -8 0 3 9 25 20 l40 19 -70 1 c-49 0 -65 3 -55 10 8 5 11 10 5 10 -5
0 8 9 31 19 55 25 61 51 26 114 -27 51 -52 71 -60 48 -4 -11 -6 -11 -13 0 -7
10 -8 9 -7 -6 3 -23 -33 -125 -44 -125 -16 0 -19 24 -7 75 10 43 9 57 -1 70
-11 13 -16 10 -41 -21 -16 -20 -29 -41 -29 -47 0 -6 -3 -8 -6 -4 -9 9 33 73
64 96 33 25 65 26 101 5z m-2309 -4 c0 -5 -4 -10 -10 -10 -5 0 -10 5 -10 10 0
6 5 10 10 10 6 0 10 -4 10 -10z m-60 -31 c0 -5 -4 -8 -9 -4 -5 3 -13 0 -17 -6
-3 -6 -1 -15 6 -19 9 -5 9 -9 1 -14 -6 -4 -11 -3 -11 1 0 5 -18 8 -39 8 -22 0
-37 3 -35 7 8 13 -6 10 -70 -16 -60 -24 -91 -30 -131 -26 -18 1 -18 2 4 11 13
5 33 7 44 3 14 -4 17 -3 12 6 -5 9 -2 10 14 5 11 -3 21 -2 21 3 0 5 6 9 13 10
6 0 38 8 71 17 32 9 64 14 71 12 6 -3 18 -1 26 4 19 12 29 11 29 -2z m-363
-45 c-3 -3 -12 -4 -19 -1 -8 3 -5 6 6 6 11 1 17 -2 13 -5z m-70 -20 c-3 -3
-12 -4 -19 -1 -8 3 -5 6 6 6 11 1 17 -2 13 -5z m2633 -65 c0 -5 -4 -9 -10 -9
-5 0 -10 7 -10 16 0 8 5 12 10 9 6 -3 10 -10 10 -16z m-1861 -20 c9 -27 9 -30
-4 -19 -12 10 -15 10 -15 -2 0 -19 45 -68 62 -68 9 0 9 -3 0 -12 -9 -9 -19 -3
-42 23 l-31 34 11 -30 c6 -16 8 -26 4 -22 -4 4 -13 -5 -20 -20 -11 -25 -12
-23 -7 27 4 51 20 120 28 120 2 0 8 -14 14 -31z m-1391 -5 l30 -6 7 -90 c4
-49 5 -91 2 -94 -6 -6 -309 -6 -314 0 -2 2 -6 46 -10 100 l-6 96 130 0 c72 0
144 -3 161 -6z m3255 -24 c10 -16 26 -30 35 -30 14 0 15 -2 2 -10 -9 -6 -17
-5 -23 3 -7 9 -10 9 -14 -1 -9 -22 -33 7 -33 39 0 37 11 37 33 -1z m-362 -61
c10 -17 -1 -19 -323 -53 -143 -15 -238 -21 -255 -16 -16 5 -22 9 -15 9 14 1
12 22 -3 33 -5 4 4 8 20 9 25 0 27 2 10 8 -14 6 -2 10 45 15 36 3 79 8 95 10
17 2 117 3 223 2 155 -2 195 -5 203 -17z m436 0 c-32 -18 -17 -28 19 -13 20 8
33 10 29 5 -3 -6 -12 -11 -20 -11 -7 0 -15 -5 -17 -12 -6 -18 -38 -1 -38 21 0
11 8 21 18 23 24 6 30 -2 9 -13z m-362 1 c4 -6 -6 -10 -24 -10 -16 0 -33 5
-36 10 -4 6 6 10 24 10 16 0 33 -4 36 -10z m437 -12 c-7 -7 -12 -8 -12 -2 0
14 12 26 19 19 2 -3 -1 -11 -7 -17z m-1909 -15 c-17 -6 -16 -33 1 -33 7 0 16
-10 19 -22 5 -19 4 -21 -6 -8 -7 8 -20 15 -29 15 -10 0 -18 3 -18 8 0 4 0 16
0 27 0 14 6 20 23 19 12 0 16 -3 10 -6z m1897 -49 c0 -2 -9 0 -20 6 -11 6 -20
13 -20 16 0 2 9 0 20 -6 11 -6 20 -13 20 -16z m20 -61 c2 -2 -2 -8 -10 -13
-12 -7 -12 -17 0 -65 8 -33 21 -62 32 -68 10 -7 18 -17 18 -24 0 -19 -42 -43
-76 -43 -35 0 -94 42 -94 66 0 8 -4 14 -10 14 -5 0 -14 17 -20 38 -10 33 -9
43 16 92 25 50 28 53 34 31 3 -14 12 -27 19 -29 11 -4 13 3 8 27 l-6 31 42
-26 c23 -15 44 -29 47 -31z m-4064 -64 c3 -5 1 -9 -5 -9 -17 0 -41 12 -41 20
0 10 38 1 46 -11z m3659 -111 c15 -29 34 -61 42 -70 15 -17 -14 -18 -600 -18
-340 0 -617 2 -617 4 0 3 13 18 30 34 27 28 36 30 127 36 54 4 242 16 418 27
470 30 559 36 567 38 4 0 19 -23 33 -51z m-2667 -25 c237 -5 252 -7 252 -24 0
-18 13 -19 264 -19 224 0 265 -2 276 -15 25 -30 45 -28 -430 -45 -157 -6 -382
-15 -500 -20 -118 -6 -231 -10 -250 -10 l-34 0 40 43 c23 23 51 57 64 75 18
26 27 32 44 27 11 -3 135 -9 274 -12z"/>
<path d="M1886 1036 c3 -9 13 -16 22 -16 8 0 13 1 11 3 -2 1 -12 9 -22 16 -15
12 -17 12 -11 -3z"/>
<path d="M2496 429 c-27 -32 -31 -44 -18 -53 5 -3 18 15 30 39 12 25 20 45 18
45 -2 0 -16 -14 -30 -31z"/>
<path d="M2040 900 c8 -5 22 -10 30 -10 13 0 13 1 0 10 -8 5 -22 10 -30 10
-13 0 -13 -1 0 -10z"/>
<path d="M4383 488 l-32 -70 32 -33 c25 -25 39 -33 55 -28 26 6 28 26 7 103
-18 66 -17 63 -5 55 17 -10 11 11 -8 28 -16 15 -19 11 -49 -55z m54 -114 c-3
-3 -12 -4 -19 -1 -8 3 -5 6 6 6 11 1 17 -2 13 -5z"/>
<path d="M4345 474 c-11 -17 -13 -30 -7 -36 6 -6 14 2 21 23 14 41 9 47 -14
13z"/>
<path d="M2028 1743 c7 -3 16 -2 19 1 4 3 -2 6 -13 5 -11 0 -14 -3 -6 -6z"/>
<path d="M1897 1697 c-46 -24 -137 -78 -201 -120 -64 -42 -126 -77 -137 -77
-48 0 -116 -60 -134 -119 -9 -29 -8 -28 100 55 135 103 347 241 420 273 39 17
62 30 53 31 -9 0 -55 -19 -101 -43z"/>
<path d="M4305 1452 c6 -6 37 -14 70 -17 33 -4 70 -11 82 -17 12 -6 41 -8 64
-5 24 3 52 1 62 -5 15 -7 18 -7 12 2 -15 24 -74 39 -186 46 -82 4 -111 3 -104
-4z"/>
<path d="M4635 1440 c3 -5 8 -10 11 -10 2 0 4 5 4 10 0 6 -5 10 -11 10 -5 0
-7 -4 -4 -10z"/>
<path d="M4620 1370 c8 -5 22 -10 30 -10 13 0 13 1 0 10 -8 5 -22 10 -30 10
-13 0 -13 -1 0 -10z"/>
<path d="M4680 1296 c0 -18 27 -29 36 -14 4 5 0 14 -7 19 -20 13 -29 11 -29
-5z"/>
<path d="M3766 1241 c-23 -25 -12 -46 34 -61 34 -11 44 -11 74 4 20 9 36 20
36 24 0 5 -29 6 -65 4 -44 -3 -65 -1 -65 7 0 6 14 14 30 18 17 3 30 9 30 14 0
17 -57 9 -74 -10z"/>
<path d="M4710 1243 c0 -5 5 -15 10 -23 8 -12 10 -11 10 8 0 12 -4 22 -10 22
-5 0 -10 -3 -10 -7z"/>
</g>
</svg>
