<?xml version="1.0" standalone="no"?>
<!DOCTYPE svg PUBLIC "-//W3C//DTD SVG 20010904//EN"
 "http://www.w3.org/TR/2001/REC-SVG-20010904/DTD/svg10.dtd">
<svg version="1.0" xmlns="http://www.w3.org/2000/svg"
 width="100.000000pt" height="70.000000pt" viewBox="0 0 100.000000 70.000000"
 preserveAspectRatio="xMidYMid meet">

<g transform="translate(0.000000,70.000000) scale(0.100000,-0.100000)"
fill="#000000" stroke="none">
<path d="M343 639 c-27 -10 -30 -24 -7 -33 31 -12 54 -6 54 13 0 23 -18 31
-47 20z"/>
<path d="M545 640 c-10 -17 12 -37 25 -24 8 8 6 15 -4 23 -10 9 -16 9 -21 1z"/>
<path d="M422 607 c-9 -26 -17 -34 -31 -30 -10 2 -24 -2 -32 -10 -17 -16 -39
-11 -39 9 0 8 -6 17 -14 20 -19 7 -56 -13 -56 -31 0 -18 -5 -19 -29 -3 -23 14
-51 4 -58 -22 -3 -11 -9 -20 -14 -20 -5 0 -9 -9 -9 -21 0 -13 5 -19 13 -16 72
28 223 70 282 78 96 14 176 1 270 -45 41 -20 106 -41 157 -50 47 -9 94 -19
105 -22 15 -5 15 -4 -2 6 -11 7 -24 18 -30 24 -5 7 -24 21 -40 33 -26 18 -33
19 -48 8 -16 -11 -23 -11 -47 3 -16 9 -27 19 -24 21 2 2 0 9 -4 16 -4 6 1 2
11 -8 18 -20 23 -12 8 12 -11 17 -107 26 -116 11 -10 -16 -22 -11 -28 10 -5
21 -41 28 -52 10 -5 -8 -11 -8 -20 0 -9 8 -15 8 -20 0 -11 -18 -37 -12 -30 9
4 14 -1 20 -22 24 -16 4 -37 9 -48 12 -17 5 -23 -1 -33 -28z m57 11 c-2 -2
-16 -14 -31 -27 -16 -14 -28 -20 -28 -13 0 16 29 42 47 42 9 0 14 -1 12 -2z
m-169 -38 c0 -5 -2 -10 -4 -10 -3 0 -8 5 -11 10 -3 6 -1 10 4 10 6 0 11 -4 11
-10z"/>
<path d="M675 630 c-3 -5 -1 -10 4 -10 6 0 11 5 11 10 0 6 -2 10 -4 10 -3 0
-8 -4 -11 -10z"/>
<path d="M210 609 c0 -25 33 -22 38 4 2 12 -3 17 -17 17 -15 0 -21 -6 -21 -21z"/>
<path d="M846 591 c-4 -7 -5 -15 -2 -18 9 -9 19 4 14 18 -4 11 -6 11 -12 0z"/>
<path d="M810 560 c0 -26 19 -35 36 -18 13 13 11 16 -11 26 -22 10 -25 9 -25
-8z"/>
<path d="M476 542 c-9 -14 4 -65 18 -74 6 -4 57 -8 112 -8 92 0 102 2 107 19
4 16 -5 24 -45 41 -57 24 -181 39 -192 22z"/>
<path d="M371 518 c-53 -20 -54 -21 -30 -34 27 -15 119 -19 119 -5 0 18 -20
61 -27 60 -5 0 -32 -9 -62 -21z"/>
<path d="M50 469 c0 -5 5 -7 10 -4 6 3 10 8 10 11 0 2 -4 4 -10 4 -5 0 -10 -5
-10 -11z"/>
<path d="M715 424 c-27 -7 -66 -14 -85 -14 -53 -1 -16 -16 55 -23 33 -3 49 -2
35 2 -39 11 86 35 156 29 50 -4 54 -3 33 8 -31 17 -130 16 -194 -2z"/>
<path d="M80 405 c0 -20 5 -25 25 -25 32 0 34 30 3 31 -22 1 -22 1 2 9 l25 8
-27 1 c-23 1 -28 -3 -28 -24z"/>
<path d="M156 418 c3 -5 1 -14 -4 -21 -8 -9 -2 -12 19 -13 21 -1 27 2 20 9 -7
7 -7 15 -1 23 8 8 4 12 -15 12 -13 0 -22 -5 -19 -10z"/>
<path d="M217 408 c-7 -24 3 -41 10 -20 3 6 13 12 24 12 10 0 19 7 19 15 0 25
-47 19 -53 -7z m40 6 c-3 -3 -12 -4 -19 -1 -8 3 -5 6 6 6 11 1 17 -2 13 -5z"/>
<path d="M287 408 c-8 -27 1 -37 14 -18 8 11 12 12 16 3 8 -21 18 -15 21 12 1
20 -3 25 -22 25 -16 0 -26 -7 -29 -22z m40 6 c-3 -3 -12 -4 -19 -1 -8 3 -5 6
6 6 11 1 17 -2 13 -5z"/>
<path d="M357 409 c-6 -22 13 -35 38 -25 23 8 18 26 -7 27 -22 1 -22 1 2 9
l25 8 -26 1 c-19 1 -28 -5 -32 -20z"/>
<path d="M430 421 c0 -5 -3 -16 -6 -25 -5 -12 0 -16 19 -16 32 0 46 30 14 31
-21 1 -21 1 3 9 l25 8 -27 1 c-16 1 -28 -3 -28 -8z"/>
<path d="M499 428 c-11 -38 -7 -48 16 -48 29 0 36 29 8 31 -12 1 -10 4 7 9
l25 8 -27 1 c-16 1 -28 0 -29 -1z"/>
<path d="M770 400 c-14 -4 8 -5 50 -2 41 2 77 6 79 8 8 7 -104 2 -129 -6z"/>
<path d="M578 363 c-9 -2 -23 -21 -30 -40 l-13 -36 -5 34 c-7 50 -40 52 -65 2
l-20 -38 -3 38 c-2 25 -8 37 -19 37 -11 0 -14 -6 -9 -22 3 -13 6 -33 6 -45 0
-38 36 -29 59 15 l20 37 1 -37 c0 -34 3 -38 25 -38 20 0 30 10 50 50 14 28 24
49 23 49 -2 -1 -11 -3 -20 -6z"/>
<path d="M357 353 c-4 -3 -7 -11 -7 -17 0 -6 5 -5 12 2 6 6 9 14 7 17 -3 3 -9
2 -12 -2z"/>
<path d="M600 313 c-33 -45 -33 -46 -9 -40 13 4 35 7 49 7 41 0 53 14 45 49
-10 48 -44 42 -85 -16z m60 7 c0 -11 -7 -20 -15 -20 -18 0 -19 12 -3 28 16 16
18 15 18 -8z"/>
<path d="M734 345 c-12 -29 3 -45 36 -39 20 4 30 2 30 -5 0 -7 -16 -11 -42
-10 -29 1 -75 -11 -138 -36 -185 -73 -398 -113 -518 -99 -37 4 -70 7 -74 6 -5
-1 -8 9 -8 22 0 14 -4 28 -10 31 -6 4 -10 -8 -10 -29 0 -25 4 -36 15 -36 8 0
14 -3 14 -7 -4 -23 4 -31 26 -28 14 1 25 -2 25 -6 0 -5 3 -8 8 -7 4 0 18 -4
32 -10 22 -9 23 -11 5 -12 -11 -1 -15 -4 -8 -6 7 -3 25 4 40 15 15 12 46 22
68 24 22 1 45 6 52 10 13 8 43 -1 43 -14 0 -18 42 -9 47 10 8 31 33 35 33 5 0
-37 22 -26 47 24 3 8 53 8 53 1 0 -5 9 -9 20 -9 11 0 20 6 20 14 0 8 7 17 16
20 9 3 14 13 11 21 -10 25 124 79 197 80 50 0 61 3 64 18 2 10 -2 24 -8 32
-10 13 -16 12 -41 0 -36 -19 -44 -19 -25 0 8 8 21 15 30 15 8 0 18 5 21 10 4
6 -8 10 -30 10 -22 0 -38 -6 -41 -15z m-377 -227 c-3 -8 -6 -5 -6 6 -1 11 2
17 5 13 3 -3 4 -12 1 -19z m64 -1 c-10 -9 -11 -8 -5 6 3 10 9 15 12 12 3 -3 0
-11 -7 -18z"/>
<path d="M856 319 c-7 -46 0 -63 15 -36 13 22 71 24 63 2 -4 -9 0 -15 8 -15 9
0 19 17 25 45 8 35 7 45 -2 45 -7 0 -15 -7 -19 -15 -3 -8 -17 -15 -31 -15 -16
0 -25 6 -25 15 0 8 -6 15 -14 15 -8 0 -16 -16 -20 -41z"/>
<path d="M96 341 c-4 -5 -2 -12 3 -15 5 -4 12 -2 15 3 4 5 2 12 -3 15 -5 4
-12 2 -15 -3z"/>
<path d="M180 334 c0 -10 -6 -14 -15 -10 -10 4 -15 -1 -15 -14 0 -14 7 -20 21
-20 14 0 19 5 16 15 -4 8 -2 17 3 20 13 8 13 25 0 25 -5 0 -10 -7 -10 -16z"/>
<path d="M270 334 c0 -8 5 -12 10 -9 6 4 8 11 5 16 -9 14 -15 11 -15 -7z"/>
<path d="M320 320 c0 -26 19 -35 36 -18 13 13 11 16 -11 26 -22 10 -25 9 -25
-8z"/>
<path d="M23 307 c0 -12 1 -16 4 -8 5 11 7 11 14 0 5 -8 9 -9 9 -3 0 6 -6 16
-13 22 -10 8 -13 6 -14 -11z"/>
<path d="M60 305 c0 -9 9 -15 25 -15 28 0 34 15 9 24 -25 10 -34 7 -34 -9z"/>
<path d="M230 305 c0 -9 9 -15 25 -15 28 0 34 15 9 24 -25 10 -34 7 -34 -9z"/>
<path d="M0 110 c0 -19 3 -21 12 -12 9 9 9 15 0 24 -9 9 -12 7 -12 -12z"/>
<path d="M185 89 c-10 -15 3 -25 16 -12 7 7 7 13 1 17 -6 3 -14 1 -17 -5z"/>
<path d="M279 98 c-4 -14 -6 -38 -4 -38 18 0 55 22 50 30 -5 9 -44 15 -46 8z"/>
<path d="M32 74 c2 -11 11 -20 22 -22 13 -3 17 1 14 14 -2 11 -11 20 -22 22
-13 3 -17 -1 -14 -14z"/>
</g>
</svg>
